<svg xmlns="http://www.w3.org/2000/svg" xmlns:xlink="http://www.w3.org/1999/xlink" version="1.1" id="Layer_1" x="0px" y="0px" style="enable-background:new 0 0 1728 1296;" xml:space="preserve" viewBox="550.43 336.9 531.12 544.18">
<style type="text/css">
	.st0{fill:#FFFFFF;}
	.st1{fill:#2F60BC;}
	.st2{fill:#7695D3;}
	.st3{fill:#2857ED;}
	.st4{fill:#6F8DF4;}
	.st5{fill:#6B8AF2;}
	.st6{fill:#F3F5FE;}
	.st7{fill:#C1CDFB;}
	.st8{fill:#829CF4;}
	.st9{fill:#7692F3;}
	.st10{fill:#3762ED;}
</style>
<g>
	<path class="st0" d="M1070.38,531.79c-6.82-24.36-17.15-47.04-30.5-68.52c-70.95-121.96-236.58-162.97-357.29-90.24   c-1.26,0.7-2.27,2.28-4.11,2.39c-5.97,4.74-12.71,9.61-19.47,13.68c-24.92,18.34-45.96,41.86-63.46,67.42   c-55.21,84.34-59.76,195.94-11.24,284.19c7.39,12.26,14.66,24.42,23.38,35.43c12.36,16.87,27.29,31.85,43.77,45.11   c0.97,0.59,2.36,1.08,3.21,2.45c1,0.56,2.36,1.06,3.2,2.47c0.89,0.74,2.68,0.93,3.25,2.42   C873.17,981.67,1070.38,531.79,1070.38,531.79z"/>
	<path class="st1" d="M803.16,337.25c33.53,0.2,68.56,1.13,98.64,16.6c-2.49,0.79-4.64,2.74-7.1,1.86   c-16.23-6.54-33.03-9.05-50.23-11.14c-55.51-7.6-112.88,6.16-160.45,35.15c-38.07,23.14-69.99,55.6-91.79,94.25   c-5.89,9.42-7.32,22.06-18.71,27.15c4.85-16.17,17.28-28.75,22.59-44.7c22.69-31.97,50.48-60.38,83.72-81.14   c25.59-11.31,50.6-25.45,78.34-31.29C772.74,338.94,788.5,340.45,803.16,337.25z"/>
	<path class="st2" d="M1077.54,569.06c37.12,211.17-191.11,387.01-384.6,279.45c6.78,0.96,20.28,15.21,23.57,5.3   c22.44,10.46,47.12,13.66,71.09,19.51c-0.81,1.15-1.5,2.06-2.7,3.63c131.39,19.26,261.95-78.2,287.89-205.55   c-1.79,0.32-2.97,0.52-4.16,0.38c4.36-26.17,7.98-53.3,5.7-79.6C1082.46,586.71,1077.84,577.19,1077.54,569.06z"/>
	<path class="st2" d="M575.38,494.15c-0.36,1.93-0.98,3.98-1.87,6.97c2.16-1.42,3.62-2.38,5.32-3.12   c-10.36,30.45-19.74,60.97-22.1,93.4c-9.41,4.74-1.98,30.48-3.77,40.57c0.05,3.54,1.39,5.25,5.3,4.91   c2.75,21.18,8.27,41.75,13.17,62.49c-3.55,1.8-3.14,4.12-2.23,7.33C541.6,638.85,545.08,560.48,575.38,494.15z"/>
	<path class="st1" d="M569.25,706.99c-0.87-3.62-1.61-5.79,2.45-7.59c0.93,0.06,1.28,0.12,1.64,0.49   c22.12,68.26,77.05,125.04,142.96,153.92c-1.69,4.33-3.37,4.75-7.13,2.62c-16.8-8.33-33.71-17.93-48.65-28.97   C618.6,797.71,588.64,753.63,569.25,706.99z"/>
	<path class="st2" d="M896.63,356.06c1.57-0.67,3.13-1.34,5.16-2.21c-7.33-5.93-15.39-5.36-22.99-9.1   c65.98,16.01,127.59,59.55,160.78,118.74c-19.5-26.25-39.12-53.47-66.79-71.98c-1.27,1.8-1.93,2.74-2.81,3.57   C948.06,376.98,922.71,366.55,896.63,356.06z"/>
	<path class="st1" d="M970.2,395.19c0.66-0.94,1.32-1.88,2.59-3.69c27.6,18.65,47.63,45.62,66.75,72.26   c2.44,2.55,0.59,5.06-2.07,5.57c-8.04-8.36-13.29-20.69-21.46-29.53c-13.78-16.06-28.13-31.93-45.62-43.94   C970.3,395.49,970.25,395.34,970.2,395.19z"/>
	<path class="st2" d="M1037.74,469.36c1.91-0.85,3.98-1.61,2.48-4.63c13.74,20.16,23.63,43.47,29.7,66.99   c-1.03-3.53-2.69-5.3-6.59-4.04C1056.54,507.25,1047.2,488.44,1037.74,469.36z"/>
	<path class="st1" d="M1063.5,527.86c8.76-4.69,10.23,27.02,13.11,32.72c-0.47,9.01,7.44,25.22-1.98,30.52   C1074.17,569.32,1068.8,548.69,1063.5,527.86z"/>
	<path class="st2" d="M769.64,340.85c-30.21,5.95-57.47,19.98-85.51,31.99C710.15,358.15,739.47,344.76,769.64,340.85z"/>
	<path class="st2" d="M595.82,456.47c-4.19,12.57-12.68,24.68-19.35,36.23C582.3,480.41,587.51,467.6,595.82,456.47z"/>
	<path class="st2" d="M584.42,740.44c7.73,9.2,13.15,19.99,19.82,30.21C595.63,762.43,591.17,750.42,584.42,740.44z"/>
	<path class="st2" d="M661.11,828.3c9.9,6.45,19.99,12.63,30.08,19.17C680.68,841.96,669.71,836.9,661.11,828.3z"/>
	<path class="st2" d="M612.87,433.94c-5.13,7.32-10.13,14.9-16.13,21.8C600.9,447.7,606.63,440.72,612.87,433.94z"/>
	<path class="st2" d="M638.24,406.95c-5.21,5.57-10.69,11.07-16.43,16.61C626.05,417.03,632.23,412.05,638.24,406.95z"/>
	<path class="st2" d="M851.12,339.32c-7.34-0.37-14.87-0.97-22.62-1.83C835.96,337.6,843.68,337.19,851.12,339.32z"/>
	<path class="st2" d="M802.89,337.07c-7.13,2.5-14.63,2.07-22.38,2.59C786.63,336.5,795.56,338.21,802.89,337.07z"/>
	<path class="st2" d="M621.57,792.75c4.83,4.61,9.61,9.48,14.43,14.62C630.1,804.9,626.48,797.35,621.57,792.75z"/>
	<path class="st2" d="M574.62,720.37c3.16,5.77,6.23,11.82,9.27,18.18C580.75,732.79,577.64,726.73,574.62,720.37z"/>
	<path class="st2" d="M652.83,394.02c-3.68,4.35-8.15,7.92-12.61,11.75C643.12,400.66,647.85,397.29,652.83,394.02z"/>
	<path class="st2" d="M877.14,344.13c-5.03-0.71-10.22-1.66-15.55-2.88C866.63,341.95,871.8,342.92,877.14,344.13z"/>
	<path class="st2" d="M821.88,336.92c-3.78,0.31-7.76,0.39-12.12,0.35C813.48,337,817.58,336.84,821.88,336.92z"/>
	<path class="st2" d="M678.77,375.47c-2.29,2.09-4.88,4.12-7.75,6.14C673.31,379.53,675.89,377.47,678.77,375.47z"/>
	<path class="st2" d="M667.4,383.5c-2.04,1.81-4.36,3.58-6.97,5.32C662.46,387.02,664.79,385.24,667.4,383.5z"/>
	<path class="st2" d="M615.09,785.53c1.81,1.49,3.58,3.26,5.33,5.31C618.62,789.34,616.84,787.57,615.09,785.53z"/>
	<path class="st2" d="M859.74,340.63c-1.84-0.02-3.88-0.24-6.1-0.7C855.49,339.94,857.52,340.18,859.74,340.63z"/>
	<path class="st2" d="M777.75,339.52c-1.78,0.67-3.8,1.17-6.03,1.49C773.51,340.33,775.52,339.84,777.75,339.52z"/>
	<path class="st2" d="M617.73,427.49c-0.78,1.6-1.83,3.23-3.14,4.92C615.38,430.82,616.42,429.17,617.73,427.49z"/>
	<path class="st2" d="M659.29,389.14c-1.2,1.28-2.68,2.53-4.44,3.77C656.05,391.63,657.53,390.36,659.29,389.14z"/>
	<path class="st2" d="M639.99,811.41c1.34,0.79,2.7,1.85,4.12,3.16C642.78,813.77,641.4,812.73,639.99,811.41z"/>
	<path class="st2" d="M646.48,817.04c1.06,0.48,2.16,1.23,3.33,2.22C648.76,818.77,647.64,818.04,646.48,817.04z"/>
	<path class="st2" d="M572.17,714.73c0.75,0.94,1.4,2.16,2.03,3.65C573.48,717.45,572.78,716.23,572.17,714.73z"/>
	<path class="st2" d="M682.86,373.1c-0.68,0.76-1.64,1.45-2.86,2.13C680.68,374.48,681.63,373.75,682.86,373.1z"/>
	<path class="st2" d="M611,780.71c0.75,0.4,1.47,1.07,2.18,2C612.45,782.3,611.71,781.63,611,780.71z"/>
	<path class="st2" d="M657.84,825.9c0.8,0.22,1.63,0.7,2.53,1.43C659.58,827.1,658.73,826.63,657.84,825.9z"/>
	<path class="st2" d="M605.31,772.65c0.74,0.45,1.44,1.17,2.11,2.15C606.68,774.36,605.97,773.64,605.31,772.65z"/>
	<path class="st2" d="M607.76,775.88c0.52,0.38,0.98,1.02,1.43,1.91C608.69,777.42,608.19,776.78,607.76,775.88z"/>
	<path class="st2" d="M651.44,820.99c0.49,0.05,1.01,0.34,1.59,0.87C652.54,821.81,652,821.53,651.44,820.99z"/>
	<path class="st2" d="M654.64,823.44c0.5,0.03,1.04,0.31,1.63,0.83C655.78,824.24,655.23,823.97,654.64,823.44z"/>
	<path class="st3" d="M582.34,494.43c48.84-115.45,192.27-182.31,312.05-138.67c-10.16,3.26-19.86,6.83-29.16,11.34   c-4.41,0.48-8.12,3.5-12.82,3.45c-1.32,1.44-3.03,1.6-4.91,1.62c-2.07,0.87-3.98,2.74-6.34,2.03c-7.74,2.68-14.4,5.43-22.69,7.46   c0.2-4.18,0.53-6.77-2.45-9.95c-7.37-2.38-3.76,10.07-5.39,13.84c-32.8,12.86-65.45,25.5-97.63,39.77   c-8.56,3.32-16.37,11.76-26.39,10.32c-11.07,0.04-22.14,0.01-33.21,0.08c-4.13,0.03-4.81,0.99-3.76,4.96   c8.28,1.26,17.04,0.2,25.13,0.96C646.12,461.26,612.41,475.92,582.34,494.43z"/>
	<path class="st4" d="M582.21,494.64c30.29-18.88,63.81-33.39,92.94-53.14c7.46,0.99,34.4-2.68,36.96,2.73   c0.06,18.05-0.07,36.11-0.44,54.17c-24.58,9.78-47.05,23.56-70.04,36.42c0.16,0.41,0.33,0.83,0.49,1.24c23.09,0,46.17,0,69.23,0.33   c-40.42,4.09-81.78-2.22-122.63,0.01c-2.26,0.34-6.49,1.28-6.87,4.02c4.81,5.4,15.14,1.6,21.88,2.71c9.86,0.01,9.86,0.01,9.03,9.86   c-19.7,9.43-36.47,25.2-55.63,36.08C560.67,556.98,566.87,522.82,582.21,494.64z"/>
	<path class="st5" d="M872.06,364.71c7.3-4.5,15.67-7.39,24.28-8.69c26.05,10.86,53.36,20.7,73.74,39.87   c-23.47,10.82-47.28,19.2-71.9,26.34C935.88,402.14,910.76,347.8,872.06,364.71z"/>
	<path class="st3" d="M716.52,853.81c-65.72-28.69-121.73-85.58-142.82-153.98c47.38-8.37,92.42-23.42,137.23-40.5   c0.56,26.32,1.97,53.41-1.37,79.68c-31.17,0.13-61.7-0.33-92.51,0.06c-1.16,0.87-2.02,1.82-2.89,2.78c1.97,2.46,4.36,3.25,7.47,2.9   c26.19,0.15,52.38,0.28,78.58,0.39c37.6-0.72,74.37,0.53,112.15,0.22c0,7.85,0.01,14.95-0.47,22.41   c-33.28,26.73-64.68,55.77-94.7,86.01C717.02,853.79,716.88,853.79,716.52,853.81z"/>
	<path class="st4" d="M1074.34,592.37c1.41,11.66,0.81,83.68-11.96,84.68c-30.51,19.98-62.12,38.21-92.75,58   c-3.38,1.64-6.47,6.44-10.85,5.2c-13.85-0.05-28.12,0.19-41.91,0.09c0-17.05,0-33.46,0.31-49.87   c25.45-13.93,50.64-29.06,74.55-45.7c17.06,1.3,34,0.26,51.09,0.55c3.92,0.89,5.06-2.29,6.81-4.96   c-9.05-5.11-21.28-1.11-31.24-2.55c-2.2-2.16-1.28-6.48-0.68-9.18C1037.54,618.65,1055.38,604.18,1074.34,592.37z"/>
	<path class="st4" d="M717.45,853.82c29.3-30.03,60.41-59.08,93.56-84.93c0.34,24.48,0.34,48.61,0.35,72.73   c0,2.67-0.3,5.54,3.16,6.85c-8.09,8.73-16.09,16.4-24.85,24.49C765.22,868.71,740.03,864.67,717.45,853.82z"/>
	<path class="st3" d="M1074.34,592.17c-18.96,11.85-36.69,26.94-56.73,36.18c-1.71-27.52,0.39-56.61-0.48-84.31   c9.44-3.08,19.85-0.86,29.66-1.67c0.65-0.53,1.01-1.11,1.36-1.93c-0.19-1.8-0.93-3.39-2.66-4.18c-1.32-3.85,14.66-5.66,18.09-7.63   C1069.07,549.33,1074.35,570.21,1074.34,592.17z"/>
	<path class="st1" d="M787.61,873.32c133.95,12.02,247.71-73.6,281-200.95c1.22-0.45,2.39-0.66,4.19-0.97   c-25.93,127.36-156.5,224.81-287.89,205.55C786.11,875.38,786.8,874.47,787.61,873.32z"/>
	<path class="st4" d="M711.52,697.74c-0.9-12.76,0.75-25.79-0.6-38.41c-45.32,16.63-90.8,33.73-138.89,40.05   c-6.23-20.62-10.69-41.35-13.78-62.68c16.61-3.75,36.94-6.17,54.65-11.06c-0.08,4.5-0.27,8.62-0.85,12.7   c-10.43,1.09-21.92-2.8-30.94,2.24c-1.25,3.71-0.28,4.77,4.16,4.58c42.49-0.08,84.53,0.17,127.1,0.17   c-0.56,17.52,0.58,35.13-0.22,52.45C711.8,697.76,711.66,697.75,711.52,697.74z"/>
	<path class="st3" d="M612.79,625.28c-18.07,4.6-35.59,9.11-54.44,10.24c-0.59-15.67-1.33-30.83-1.22-46.17   c18.89-11.09,35.94-27.41,55.67-35.99C613.23,577.71,613.21,601.2,612.79,625.28z"/>
	<path class="st1" d="M556.73,591.41c0.61,14.81,0.94,29.8,1.3,45.04c-3.68,0.77-5.01-0.94-5.07-4.48   C554.77,621.82,547.3,596.26,556.73,591.41z"/>
	<path class="st3" d="M898.13,422.49c24.65-7.49,48.35-15.86,72-26.37c27.17,18.52,49.03,44.76,65.73,72.97   c-39.41,14.36-78.46,27.84-117.94,41.6c1.63-22.74-2.26-47.39,2.54-68.92c21.33-0.5,42.39,1.26,63.21-0.64   c17.19-11.6-104.65-3.19-113.94-5.93c2.96-5.41,12.69-4.73,17.43-9.27C890.97,425.78,894.28,422.66,898.13,422.49z"/>
	<path class="st4" d="M917.97,511.06c39.75-14.29,79.32-28.83,119.5-41.73c10.1,19.16,19.17,38.44,26.1,59.1   c-6.12,2.97-14.26,2.67-18.9,7.53c-41.69,0.26-83.11,0.4-124.32,0.15C914.78,531.34,919.15,518.25,917.97,511.06z"/>
	<path class="st6" d="M917.92,510.69c1.24,7.61-3.14,20.55,2.44,25.43c41.63,2.15,86.71-3.62,127.25,2.2   c0.18,0.62,0.36,1.24,0.29,2.17c-0.63,0.81-1.02,1.32-1.4,1.83c-9.54,0.25-20.12,0.07-30.04,0.08c0.94,22.32-2.74,46.23,0.38,68.57   c1.08,8.34-2.15,19.59,1.63,27.06c8.88-0.01,17.77-0.01,27.16,0.23c1.1,1.16,1.7,2.06,2.3,2.96c-41.88,5.08-86.9-0.11-129.73,1.91   c-2.85,32.28-0.63,64.3-1.33,97.19c26.18,0.05,52.95,0.26,79.05,0.92c6.67,0.41,15.76-2.84,20.44,2.57   c-1.69,1.94-3.34,3.04-6.01,2.49c-18.27-0.05-36.53-0.12-54.8-0.12c-46.03-0.88-92.71-1.07-138.83-0.96   c1.43,33.6-0.68,67.29,0.55,100.85c-0.61,0.4-1.03,0.65-1.78,0.75c-1.09-1.79-2.5-3.42-2.51-5.06c-0.78-24.64,1.21-49.6-0.91-74.07   c-1.82-5.85,6.64-24.21-2.97-23.35c-64.72,0.17-129.96,1.07-194.57-2.08c1.43-1.59,2.12-2.35,2.81-3.11   c30.71-0.65,61.16,0.06,92.56-0.21c4.5-30.37,0.77-60.97,3.91-91.58c0.17-2.81-1.44-4.25-4.18-4.25   c-16.91-0.04-33.82-0.05-50.73,0.07c-0.96,0.01-1.92,1.23-2.87,1.89c-23.46,0.05-46.92,0.09-70.81-0.19   c-1.56-1.68-2.7-3.04-3.84-4.39c9.98-2.65,21.54,1.65,31.07-2.1c1.08-28.49,0.54-56.35,0.67-85.02   c0.49-10.24,0.49-10.24-9.37-10.25c-6.69-0.3-13.62,0.77-20.16-0.83c-15.33-14.44,117.78,0.44,128.03-6.14   c0.52-31.1,0.47-61.04,0.51-91.93c0-0.84-1.62-2.26-2.64-2.41c-19.68-1.04-40.02,0.41-59.82-1.37c-1.04-3.73-0.36-4.69,3.77-4.72   c11.07-0.08,22.14-0.04,33.21-0.08c40.28-0.37,80.62,0.01,120.25-0.01c3.14,0.01,3.91-1.11,3.85-3.99   c1.87-6.74-4.06-66.63,5.26-59.6c2.59,20.43,0.62,40.19,0.71,60.6c-0.03,1.98,0.63,2.94,2.78,2.94   c54.74,0.67,109.79-1.65,164.36,0.89c0,1.58-0.25,2.68-0.89,3.8c-87.47,0.59-174.62,0.82-261.86,0.92   c-7.45,0.52-1.93,15.49-3.14,21.14c-1.73,23.41-0.3,47.3-0.91,70.9c-0.02,3.53,1.48,4.49,4.91,4.48   c61.77-0.1,123.54-0.14,185.3-0.17c8.4,0.17,3.76-13.66,5.37-19.11c1.25-25.37-0.82-51.46,2-76.46c1.15,0.04,1.98,0.05,2.87,0.29   c0.46,0.72,0.87,1.19,1.28,1.67C918.37,465.83,917.93,488.36,917.92,510.69z M816.19,631.74c0.49,2.25,0.98,4.5,1.71,7.33   c56.97,3,112.71-2.26,170.14-0.87c6.21-1.76,28.4,6.26,23.42-6.42c0.59-28.69-1.12-57.99,0.93-86.56c1.18-4.26-1.93-3.47-4.23-3.47   c-63.36-0.14-126.67,0-189.88,0.37c-2.93,24.59-0.58,49.8-1.03,75.22C818.03,621.87,815.55,626.38,816.19,631.74z M618.33,547.34   c0.97,30.04-1.32,60.82,0.65,91.62c46.37,2.56,93.37-0.16,139.66,0.11c16.25,1.75,33.73,0.14,50.39,0.64   c1.19-0.1,1.91-2.15,3.09-3.24c1.92-28.3-1.96-57.79,0.83-86.03c-0.08-1.61-0.15-3.22-0.29-5.31c0.15-0.28,0.31-0.56,0.86-0.95   c0.12-0.6,0.25-1.2,0.37-1.79c-64.77,2.01-130.42-2.86-194.74,0.36C618.85,544.08,618.56,545.41,618.33,547.34z M883.22,644.91   c-53.55,0.26-107.75-0.16-161.76-0.08c-5.93,0.65-2.39,6.54-2.92,10.85c-2.37,21.02-0.2,43.23-1.79,64.94   c1.65,19.65-6.29,18.03,16.54,19.53c57.54,0.35,114.96-0.25,172.61,0.23c4.09,0.05,5.32-1.1,5.29-5.18   c-0.09-12.16,0.33-24.32,0.42-36.48c0.53-16.82-0.66-34.08,0.68-51.21c1.01-3.48-1.16-4.23-3.89-4.26   C899.87,643.9,891.23,641.43,883.22,644.91z"/>
	<path class="st4" d="M869.73,435.21c-78.86,0.35-45,11.21-53.58-62.91c3.06,2.34,2.42,5.66,2.33,9.36   c4.51-1.89,10.49-1.44,13.89-4.81c2.38-0.84,6.44-1.05,8.95-2.47c2.01,0.39,5.04-1.18,6.48-2.16c1.16-0.08,4.18-0.18,4.87-1.64   c2.99-0.5,8.04-1.12,10.55-3.28c1.02,0.07,3.57-0.42,4.06-1.62c10.73-2.53,22.64-7.24,32.61-0.85c20.54,10.27,24,39.64,3.2,53.78   c-3.63,3.8-9.61,4.43-13.89,7.15c-1.01-0.07-3.56,0.41-4.06,1.6C880.47,430.24,872.25,430.51,869.73,435.21z"/>
	<path class="st4" d="M810.64,385.55c-1.05,6.56,4.17,53.08-3.75,50.08c-37.03-0.11-74.06-0.09-111.46-0.24   C731.25,413.89,772.14,401.78,810.64,385.55z"/>
	<path class="st5" d="M862.92,367.26c-0.91,0.77-2.11,1.51-3.61,2.25C860.22,368.75,861.42,367.99,862.92,367.26z"/>
	<path class="st5" d="M847.5,372.18c-0.91,0.74-2.11,1.45-3.6,2.17C844.81,373.62,846.01,372.88,847.5,372.18z"/>
	<path class="st4" d="M811.6,373.56c0.23,0.66,0.21,1.38-0.01,2.28C811.37,375.22,811.36,374.42,811.6,373.56z"/>
	<path class="st5" d="M867.02,365.67c-0.15,0.47-0.55,0.95-1.23,1.43C865.94,366.63,866.35,366.15,867.02,365.67z"/>
	<path class="st4" d="M649.66,440.68c0.46-0.14,0.94-0.04,1.54,0.27C650.77,441.08,650.22,441,649.66,440.68z"/>
	<path class="st5" d="M832.11,376.87c-0.1,0.48-0.46,0.99-1.08,1.53C831.14,377.92,831.49,377.41,832.11,376.87z"/>
	<path class="st5" d="M841.17,374.2c-0.25,0.43-0.64,0.7-1.29,0.98C840.09,374.81,840.55,374.42,841.17,374.2z"/>
	<path class="st5" d="M852.41,370.56c-0.15,0.47-0.56,0.92-1.22,1.38C851.34,371.48,851.75,371.01,852.41,370.56z"/>
	<path class="st3" d="M711.66,498.39c0.26,12.4,0.24,24.8-0.04,37.43c-23.34,0.23-46.42,0.23-69.51,0.23   c-0.16-0.41-0.33-0.83-0.49-1.24C664.62,521.95,687.08,508.17,711.66,498.39z"/>
	<path class="st7" d="M617.04,739.07c-0.4,0.85-1.09,1.62-2.52,3.2c29.5,3.98,59.94-1.1,89.53,2.25   c-27.29,1.64-55.02-0.18-82.44,0.23c-3.07,0.35-5.52-0.44-7.47-2.9C615.01,740.9,615.88,739.94,617.04,739.07z"/>
	<path class="st7" d="M811.86,767.78c2.64,24.33,0.15,49.42,1.1,74c0.01,1.64,1.42,3.28,2.41,5.26c-0.12,0.62-0.48,0.88-0.83,1.15   c-3.48-1.04-3.18-3.9-3.19-6.57C811.9,817.29,810.28,792.08,811.86,767.78z"/>
	<path class="st7" d="M759.61,745.18c16.14-2.09,33.09-0.06,49.47-0.83c7.7-0.7,3.61,8.27,3.54,12.86   c-0.29-3.59-0.29-7.3-0.29-11.84C794.4,745.37,777.14,745.37,759.61,745.18z"/>
	<path class="st7" d="M712.15,697.78c0.18,6.37,0.14,12.75-0.18,19.22C712.22,711.18,710.34,703.16,712.15,697.78z"/>
	<path class="st4" d="M710.83,727.5c0.12,3.7-0.05,7.52-0.56,11.39C710.14,735.18,710.34,731.4,710.83,727.5z"/>
	<path class="st3" d="M814.52,848.46c41.52-37.74,88.22-69.4,134.19-101.74c20.48-1.32,41.1-0.11,61.63-0.42   c2.64,0.56,4.37-0.55,6.01-2.49c-8.4-7.07-40.4-1.36-53.66-3.5c33.45-23.27,69.17-44.01,103.96-65.21   c-27.16,122.02-150.32,211.9-276.31,197.86C798.13,864.73,806.73,857.02,814.52,848.46z"/>
	<path class="st3" d="M917.17,690.47c-0.29-14.73-0.03-29.87,0.61-44.89c24.79-0.47,49.19-0.59,73.6-0.72   C967.86,661.58,942.4,676.57,917.17,690.47z"/>
	<path class="st7" d="M991.72,644.77c-24.75,0.21-49.15,0.34-73.96,0.41c-0.6-2.97,2.18-2.09,4.05-2.17   c41.68-1.62,85.42,3.16,126.11-1.77c-0.6-0.9-1.19-1.81-1.92-2.97c1.12,0.53,2.37,1.3,3.62,2.08c-1.76,2.67-2.89,5.86-6.81,4.96   C1025.72,645.03,1008.79,646.07,991.72,644.77z"/>
	<path class="st7" d="M958.77,740.25c-4.75,0.36-9.72,0.47-14.94,0.35C948.58,740.24,953.56,740.12,958.77,740.25z"/>
	<path class="st7" d="M1017.19,630.83c-0.34-0.78-0.56-1.86-0.57-3.05C1017.83,628.08,1017.22,629.87,1017.19,630.83z"/>
	<path class="st7" d="M1018.39,637.8c-0.45-0.09-0.98-0.43-1.38-0.94C1017.53,636.98,1017.92,637.27,1018.39,637.8z"/>
	<path class="st7" d="M1017.02,610.64c-2.47-17.41-1.37-37.44-0.43-55.2C1018.67,573.23,1016.58,592.13,1017.02,610.64z"/>
	<path class="st7" d="M1017.14,544.04c-0.41-0.44-0.55-1.04-0.68-1.63c1.32-0.08,2.65-0.17,4.14-0.01   C1019.64,543.07,1018.53,543.48,1017.14,544.04z"/>
	<path class="st4" d="M1047.6,538.04c-0.64-0.22-1.28-0.74-1.93-1.51C1046.3,536.76,1046.95,537.25,1047.6,538.04z"/>
	<path class="st4" d="M1046.79,542.38c0.09-0.56,0.47-1.07,1.11-1.63C1047.8,541.27,1047.44,541.84,1046.79,542.38z"/>
	<path class="st7" d="M656.4,645.2c0.58-0.78,1.53-2.01,2.49-2.01c16.91-0.12,33.82-0.1,50.73-0.07c7.43,0.39,2.93,10,3.1,14.86   c-1.26-4.25-0.93-7.86-0.35-12.66C693.48,645.33,675.13,645.33,656.4,645.2z"/>
	<path class="st7" d="M612.05,638.34c-8.94,3.37-19.56,0.58-29.48,1.4C591.47,636.29,602.15,639.16,612.05,638.34z"/>
	<path class="st7" d="M581.11,640.58c1.4,1.27,2.54,2.63,3.74,4.25C580.84,645.35,579.87,644.29,581.11,640.58z"/>
	<path class="st8" d="M919.96,440.8c20.9-1,41.71-0.2,63.01-0.29c0.4,0.37,0.41,0.52,0.42,0.67c-20.7,1.78-41.72,0.13-62.96,0.36   C920,441.11,919.98,440.96,919.96,440.8z"/>
	<path class="st4" d="M983.67,441.13c-0.84-1.14,0.42-3,0.45-4.47C987.25,438.06,985.5,439.57,983.67,441.13z"/>
	<path class="st5" d="M889.49,425.75c0.89-0.74,2.06-1.48,3.53-2.24C892.13,424.24,890.95,425,889.49,425.75z"/>
	<path class="st4" d="M918.33,488.65c-0.32-0.84-0.41-1.81-0.34-3.02C918.29,486.44,918.42,487.48,918.33,488.65z"/>
	<path class="st4" d="M919.71,440.81c0.89,0.79-0.41,1.91-0.8,2.86c-0.57-0.19-0.97-0.66-1.19-1.51c0.38-0.67,0.57-0.97,0.76-1.28   C918.81,440.86,919.14,440.84,919.71,440.81z"/>
	<path class="st5" d="M885.39,427.35c0.14-0.47,0.55-0.94,1.21-1.42C886.46,426.4,886.05,426.88,885.39,427.35z"/>
	<path class="st3" d="M717.2,720.27c0.99-21.16-0.82-43.6,1.73-64.85c51.96-19.7,109.47-7.03,165.01-10.35   c9.8,1.31,19.82-2.29,27.87,2.78c-3.13,14.48-0.46,29.68-1.56,44.47c-0.05,2.12-1.58,4.96-3.34,6.17   c-20.26,13.89-41.12,26.91-60.91,41.47c-38.47-0.79-77.7-2.2-116.3-0.7C709.94,740.98,718.76,734.36,717.2,720.27z"/>
	<path class="st3" d="M910.31,441.04c0.96-0.04,3.12,0.1,3.99,0.92c-5.17,22.12-1.58,45.76-2.95,68.44   c2.18,7.73-40.23,16.44-48,21.08c-45.72,9.75-95.2,1.31-142.04,3.89c-6.18-3.48-1.06-32.63-2.22-41.03   c38.8-18.66,79.97-32.82,118.54-51.48C861.04,438.72,886.23,442.34,910.31,441.04z"/>
	<path class="st3" d="M817.03,623.72c0.18-1.59,0.37-3.18,0.97-5.11c64.15-24.85,128.4-49.64,193.48-72.09   c-0.01,28.42-0.01,56.84-0.13,85.85c-1.05,3.39-5.35,5.39-8.73,4.85c-60.97,1.41-122.65,1.12-184.01,0.56   C817.91,633.2,817.43,628.16,817.03,623.72z"/>
	<path class="st4" d="M618.77,638.36c-0.19-4.94-0.39-9.89-0.17-15.2c65.71-20.2,128.46-48.67,193.38-71.05   c0.6,23.94-1,50-0.02,73.74c-0.34,0.36-0.48,0.37-0.69,0.05c0.22-3.59-1.06-4.21-4.1-3.11c-12.91,5.59-27.56,7.74-39.29,15.46   C718.19,638.71,667.9,638.13,618.77,638.36z"/>
	<path class="st3" d="M812.05,551.86c-64.8,22.63-127.48,51.43-193.34,70.93c0.25-24.96-0.38-48.92,0.26-74.14   c3.45-2.27,4.8-5.27,8.82-5.44c32.71,0.01,64.76,0.01,96.82-0.03c29.12-0.99,57.69,0.02,87.15-0.23c0.77,0.64,1.06,0.98,1.36,1.33   C811.67,546.58,813.02,549.68,812.05,551.86z"/>
	<path class="st4" d="M1011.62,546.43c-65.13,22.36-129.14,47.59-193.45,71.89c0.26-22.41,0.41-46.37,0.7-69.4   c4.77-2.22,11.47-1.72,14.2-6.11c58.81,3.51,122.04-4.42,178.93,2.87C1011.95,545.91,1011.88,546.13,1011.62,546.43z"/>
	<path class="st4" d="M948.38,746.52c-44.05,32.45-90.53,62.07-130.67,99.39c0.72-26.82,2.2-55.95-0.43-82.89   c4.51-7.34,16.1-9.69,19.05-17.63C873.44,745.07,911.18,747.7,948.38,746.52z"/>
	<path class="st4" d="M834.91,444.78c-38.69,16.1-77.57,32.66-115.85,49.18c-0.44-15.93-0.82-31.67-0.43-47.23   c-0.15-3.29,1.05-4.04,4.17-4.02c38.07,1.24,76.59-3.71,114.5,0.18C837.01,443.46,835.14,444.16,834.91,444.78z"/>
	<path class="st9" d="M846.38,740.08c19.2-14.95,40.5-27.68,60.53-41.59c1.76-1.21,3.29-4.04,3.34-6.17   c1.06-14.22-1.38-28.86,1.23-42.82c0.55,28.46-0.13,57.17-0.3,85.69c0.03,4.07-1.2,5.22-5.29,5.18   C886.18,740.15,866.47,740.23,846.38,740.08z"/>
	<path class="st8" d="M717.77,464.76c2.61,22.02,0.08,45.95,0.91,68.12c0.48,1.56,3.02,3.13,5.03,2.56   c46.14-2.78,94.69,5.84,139.64-3.96c8.02-4.71,50.08-13.35,48-21.08c0.94-21.62-1.21-43.72,1.92-65.05   c0.61,29.23-0.37,58.67-1.29,87.91c-0.04,3.33-1.48,4.3-4.73,4.3c-29.19-0.05-58.39,0.06-87.58,0.08   c-32.57,0.03-65.15-0.03-97.72,0.09c-3.43,0.01-4.93-0.95-4.91-4.48C717.63,510.47,716.34,487.36,717.77,464.76z"/>
	<path class="st3" d="M768.25,638.19c11.31-7.84,26.26-9.8,38.92-15.41c3.04-1.1,4.32-0.48,4.09,3.47c-0.32,4.4,1.24,8.17-0.42,11.6   C796.37,638.15,782.31,638.17,768.25,638.19z"/>
	<path class="st7" d="M1012.2,545.45c-56.83-6.88-118.76,1.15-177.14-2.87c57.37-2.38,115.49-0.07,173.1-0.84   C1010.46,541.75,1013.57,540.96,1012.2,545.45z"/>
	<path class="st7" d="M618.87,638.66c40.58-0.32,81.26-0.33,122.32-0.23C701.4,641.12,658.88,640.53,618.87,638.66z"/>
	<path class="st3" d="M835.96,745.34c-1.97,7.12-12.51,10.56-18.01,15.97c-0.75-4.64-0.46-11.55-0.94-16.08   C823.21,745.26,829.4,745.28,835.96,745.34z"/>
	<path class="st9" d="M721.12,654.89c-0.6,0.09-1.19,0.19-2.09,0.25c-0.23-3.69-3.33-9.84,2.43-10.32   c9.45-0.13,18.91-0.05,28.64,0.15c-7.41,3.65-18.92,3.62-24.91,8.42C724.08,653.23,721.79,654.2,721.12,654.89z"/>
	<path class="st7" d="M728.39,542.42c-33.07,2.16-66.69,0.12-100.32,0.7C660.4,539.96,695.56,541.71,728.39,542.42z"/>
	<path class="st9" d="M729.92,739.5c31.65-1.26,64.34-1.48,95.95,0.26C794.13,740.77,761.66,740.83,729.92,739.5z"/>
	<path class="st7" d="M818.64,638.12c31.04,0.21,61.97-0.39,93.01,0.26c-29.97,2.82-63.44,2.12-93.62,0.3   C818.31,638.24,818.48,638.18,818.64,638.12z"/>
	<path class="st7" d="M817.15,763.29c2.61,26.02,1.87,54.62,0.29,80.87C816.28,817.28,817.23,790.45,817.15,763.29z"/>
	<path class="st8" d="M774.37,441.23c-16.27,3.88-34.64,0.49-51.57,1.47c-7.81-0.41-2.67,13.71-4.57,19.08   c0.77-5.01-4.42-20.18,2.86-20.59C738.72,441.09,756.36,441.14,774.37,441.23z"/>
	<path class="st7" d="M818.55,548.95c-0.79,22.49,1.45,45.32-1.1,67.6c-0.41-22.43-1-44.81,0.26-67.42   C818.16,548.88,818.55,548.95,818.55,548.95z"/>
	<path class="st7" d="M942.56,745.83c-21.03,1.59-43.73,1.81-64.73-0.23C899.24,745.41,920.79,745.49,942.56,745.83z"/>
	<path class="st7" d="M767.88,638.25c14.43-0.08,28.49-0.1,42.93-0.15c-0.34,0.54-1.06,1.6-1.78,1.6   c-16.62-0.74-34.56,1.6-50.52-0.91C761.41,638.45,764.46,638.38,767.88,638.25z"/>
	<path class="st8" d="M837.64,442.87c-12.38-2.01-24.7-0.55-37.44-1.34c13.31-2.54,29,0.04,43.32-0.48   C841.82,441.81,839.9,442.33,837.64,442.87z"/>
	<path class="st10" d="M818.87,548.92c-0.31,0.03-0.71-0.04-0.9-0.02c-0.34-1.54-0.49-3.1-0.47-5.04c0.47-0.69,0.78-1.01,1.08-1.33   c4.59,0.04,9.18,0.08,14.13,0.2C830.93,547.35,823.3,546.65,818.87,548.92z"/>
	<path class="st9" d="M912.05,647.68c-8.37-4.57-18.18-1.45-27.75-2.61c6.56-4.2,16.4-0.86,24.1-1.83   C911.12,643.27,913.29,644.02,912.05,647.68z"/>
	<path class="st7" d="M812.39,621.07c-2.7-7.6,0.03-17.46-0.42-26.03C813.3,603.59,812.85,612.23,812.39,621.07z"/>
	<path class="st4" d="M618.32,587.76c2.97,4.72,0.09,11.83,0.34,17.48C618.31,599.62,618.24,593.87,618.32,587.76z"/>
	<path class="st4" d="M987.67,638.04c4.29-2.69,9.9-0.8,14.96-0.62c0.25,0.59,0.25,0.73,0.25,0.87   C997.93,638.26,992.99,638.23,987.67,638.04z"/>
	<path class="st7" d="M981.79,741.03c4.24-0.38,8.61-0.48,13.36-0.37c0.38,0.35,0.39,0.49,0.4,0.62   C991.01,741.29,986.46,741.3,981.79,741.03z"/>
	<path class="st8" d="M910.06,440.82c-4.03,0.35-8.32,0.48-12.79,0.38C901.32,440.85,905.56,440.73,910.06,440.82z"/>
	<path class="st7" d="M1003.12,638.51c-0.23-0.36-0.23-0.5-0.24-0.85c5.05-1.34,7.88,1.99,8.58-4.94   C1015.04,639,1007.54,639.37,1003.12,638.51z"/>
	<path class="st4" d="M625.09,543.38c-1.68,1.71-3.71,3.3-5.97,4.94c-1.42-1.19,0.51-4.06,0.46-5.28   C621.29,543.11,623.02,543.18,625.09,543.38z"/>
	<path class="st4" d="M818.61,637.77c-0.14,0.4-0.3,0.46-0.71,0.62c-0.73-2.15-1.22-4.4-1.48-7.05c0.57-0.39,0.89-0.38,1.22-0.36   C817.96,633.12,818.28,635.27,818.61,637.77z"/>
	<path class="st7" d="M811.83,636.57c0.17-2.86-1.57-7.93,0.15-10.38C812.17,629.61,812.14,633.04,811.83,636.57z"/>
	<path class="st7" d="M816.71,745.23c0.5,3.02,0.68,6.04,0.69,9.38C816.95,751.7,816.67,748.47,816.71,745.23z"/>
	<path class="st9" d="M717.48,676.26c0.34,2.31,0.49,4.87,0.37,7.62C717.48,681.56,717.39,679.04,717.48,676.26z"/>
	<path class="st7" d="M817.66,630.62c-0.34,0.34-0.67,0.33-1.24,0.36c-0.15-2.27-0.06-4.59,0.32-7.09   C817.24,625.9,817.46,628.09,817.66,630.62z"/>
	<path class="st4" d="M995.92,741.26c-0.38-0.11-0.38-0.25-0.39-0.59c2.14-0.26,4.27-0.32,6.53-0.11   C1000.21,740.96,998.25,741.1,995.92,741.26z"/>
	<path class="st7" d="M916.92,668c0.32,1.64,0.38,3.39,0.23,5.39C916.85,671.8,916.76,669.96,916.92,668z"/>
	<path class="st7" d="M812.69,550.54c-0.29-1.36-0.32-2.82-0.17-4.61C812.79,547.22,812.87,548.83,812.69,550.54z"/>
	<path class="st8" d="M914.62,441.99c-0.54-0.16-0.77-0.29-1.03-0.62c1.44-0.39,2.92-0.58,4.64-0.63c0.06,0.44-0.13,0.75-0.55,1.18   C916.6,442.04,915.77,442.03,914.62,441.99z"/>
	<path class="st9" d="M716.97,720.44c0.35,1.05,0.47,2.26,0.37,3.66C717,723.05,716.87,721.83,716.97,720.44z"/>
	<path class="st7" d="M619.36,542.89c-0.05,1.29-0.32,2.43-0.84,3.71C618.56,545.41,618.85,544.08,619.36,542.89z"/>
	<path class="st9" d="M717.83,659.29c0.32,0.84,0.41,1.81,0.26,2.92C717.78,661.38,717.69,660.4,717.83,659.29z"/>
	<path class="st7" d="M813.32,544.23c-0.49-0.29-0.79-0.64-1.18-1.32c0.52-0.4,1.13-0.46,1.74-0.53   C813.76,542.98,813.64,543.58,813.32,544.23z"/>
	<path class="st7" d="M841.16,745.04c-0.58,0.28-1.29,0.37-2.15,0.25C839.59,745,840.31,744.92,841.16,745.04z"/>
	<path class="st7" d="M818.43,542.33c-0.16,0.53-0.47,0.85-0.98,1.25C817.58,543.15,817.93,542.64,818.43,542.33z"/>
	<path class="st5" d="M725.51,653.42c3.67-4.03,13.12-4.25,18.92-6.68C738.36,649.11,732.09,651.28,725.51,653.42z"/>
	<path class="st5" d="M721.4,654.94c0.37-0.51,1.02-0.97,1.95-1.42C722.98,654.01,722.33,654.5,721.4,654.94z"/>
	<path class="st8" d="M835.14,444.83c0.13-0.44,0.48-0.81,1.05-1.23C836.06,444.01,835.71,444.45,835.14,444.83z"/>
	<path class="st4" d="M1010.62,634.17c0.76,2.84-0.83,3.44-3.58,3C1007.93,636.1,1009.14,635.16,1010.62,634.17z"/>
</g>
</svg>