<svg xmlns="http://www.w3.org/2000/svg" xmlns:xlink="http://www.w3.org/1999/xlink" version="1.1" id="Layer_1" x="0px" y="0px" style="enable-background:new 0 0 1302.55 909.82;" xml:space="preserve" viewBox="97.71 295.83 1136.61 318.15">
<style type="text/css">
	.st0{fill:#FFFFFF;}
	.st1{fill:#920303;}
	.st2{fill:#920202;}
	.st3{fill:#020202;}
	.st4{fill:#030303;}
	.st5{fill:#910000;}
	.st6{fill:#481F1C;}
	.st7{fill:#461E1B;}
	.st8{fill:#846966;}
	.st9{fill:#704F4E;}
	.st10{fill:#910001;}
	.st11{fill:#B84B4F;}
	.st12{fill:#B7494D;}
	.st13{fill:#900001;}
	.st14{fill:#AE333A;}
	.st15{fill:#920101;}
	.st16{fill:#B94D51;}
	.st17{fill:#910101;}
	.st18{fill:#B84A4E;}
	.st19{fill:#A9262D;}
	.st20{fill:#F4E0E1;}
	.st21{fill:#920001;}
	.st22{fill:#B53E43;}
	.st23{fill:#930203;}
	.st24{fill:#B64348;}
	.st25{fill:#C15D60;}
</style>
<g>
	<path class="st0" d="M492.02,511.3c-5.82-26.3-11.59-52.61-17.47-78.9c-6-26.84-12.08-53.65-18.25-80.45   c-0.32-1.37-1.87-3.44-2.93-3.49c-6.41-0.33-19.16-0.16-19.16-0.16s-26.67,119.3-40.07,179.21c7.62,0,14.43-0.2,21.22,0.08   c3.66,0.15,4.88-1.16,5.5-4.69c1.95-11.19,4.33-22.3,6.54-33.36h35.07c2.48,12.58,4.93,24.98,7.42,37.63h25.7   C494.38,521.88,493.27,517.03,492.02,511.3z"/>
	<path class="st0" d="M337.54,348.54h-25.27c0,12.04,0,23.84,0,36.72v141.86h76.08v-25.28h-50.81V348.54z"/>
	<path class="st0" d="M288.21,444.56v-95.98h-25.45v6.14c0,41.67,0.02,83.34-0.04,125.02c-0.01,3.57-0.34,7.17-0.88,10.7   c-1.15,7.62-6.78,12.6-14.2,12.85c-8.4,0.28-14.26-3.98-15.97-12.01c-0.67-3.12-0.9-6.39-0.9-9.6   c-0.06-42.39-0.04-84.78-0.04-127.17v-5.96h-25.24c-0.16,0.94-0.38,1.62-0.38,2.31c-0.01,45.44-0.09,90.89,0.03,136.33   c0.07,24.83,19.87,39.1,35.73,41.57c22.6,3.51,45.95-14.42,47-37.33C288.56,476.2,288.13,460.91,288.21,444.56z"/>
	<path class="st0" d="M140.56,372.83c9.53-0.37,14.99,2.68,17.54,10.87c1.61,5.16,2.06,10.69,3.02,15.99h25.68   c-0.82-7.77-0.62-15.43-2.55-22.51c-7.67-28.09-42.22-38.7-65.91-23.27c-12.71,8.27-17.96,21.13-18.91,35.64   c-2.04,31.05,6.79,45.03,30.33,53.69c7.04,2.59,13.9,5.68,20.73,8.78c4.79,2.17,8.54,5.65,8.74,11.24   c0.31,8.57,0.66,17.2,0.04,25.74c-0.76,10.4-7.39,14.81-19.84,14.3c-8.72-0.36-15.32-6.97-15.73-15.89   c-0.15-3.34-0.02-6.7-0.02-10.42c-5.6,0-10.62,0-16.68,0H97.8c0,4.73-0.23,8.86,0.04,12.97c1.35,20.44,17.8,37.09,39.27,38.92   c22.73,1.94,40.82-8.07,46.14-30.21c2.7-11.26,2.78-22.58,2.19-34.15c-0.93-18.37-9.09-30.74-26.49-37.1   c-8.04-2.94-15.94-6.26-23.81-9.63c-5.66-2.43-9.67-6.77-9.99-12.98c-0.33-6.57-0.14-13.31,0.98-19.77   C127.44,377.6,133.5,373.1,140.56,372.83z"/>
	<path class="st0" d="M850.6,372.06c-11.28-18.74-25.65-34.58-44.2-47.14c-12.02-8.63-24.93-15.51-39.76-20.31   c-49.43-16.07-96.12-10.13-139.55,18.28c-26.02,17.02-45.22,40.11-57.63,69.34c-2.62,7.63-5.98,15.11-7.66,22.94   c-2.13,9.9-2.89,20.08-4.65,31.06c0.28,8.58,0.56,17.16,0.65,26.68c2.89,11.94,5.78,23.87,8.68,36.63   c4.49,9.37,8.23,19.2,13.6,28.04c17.58,28.91,41.92,50.34,73.88,63.94c13.93,5.78,28.29,9.91,44.25,11.53   c40.95,4.17,78.28-5.63,111.36-30c31.25-23.02,51.53-53.59,60.66-92.26c0.9-4.93,2.34-9.84,2.57-14.81   c0.5-10.64,0.37-21.32,0.7-32.96c-2.29-11.87-4.58-23.75-6.85-36.45C861.37,395.32,856.05,384.08,850.6,372.06z"/>
	<polygon class="st0" points="1183.84,502.14 1183.84,449.27 1227.59,449.27 1227.59,425.19 1183.81,425.19 1183.81,372.66    1234.23,372.66 1234.23,348.54 1158.04,348.54 1158.04,527.11 1234.32,527.11 1234.32,502.14  "/>
	<path class="st0" d="M1090.23,348.54h-25.27c0,39.36,0,78.47,0,118.67v59.9h76.1v-25.29h-50.82V348.54z"/>
	<path class="st0" d="M1031.34,348.29h-16.84v178.92h24.75V348.59c-0.78-0.15-1.12-0.27-1.46-0.27   C1035.99,348.3,1034.19,348.3,1031.34,348.29z"/>
	<polygon class="st0" points="917.4,372.84 946.59,372.84 946.59,527.2 972.43,527.2 972.43,372.53 1001.52,372.53 1001.52,348.46    917.4,348.46  "/>
	<path class="st1" d="M288.21,445.1c-0.08,15.81,0.35,31.09-0.35,46.33c-1.05,22.91-24.39,40.84-47,37.33   c-15.86-2.46-35.66-16.73-35.73-41.57c-0.12-45.44-0.04-90.89-0.03-136.33c0-0.68,0.22-1.37,0.38-2.31c8.33,0,16.5,0,25.24,0   c0,2.12,0,4.04,0,5.96c0,42.39-0.02,84.78,0.04,127.17c0,3.2,0.23,6.47,0.9,9.6c1.72,8.03,7.57,12.3,15.97,12.01   c7.41-0.25,13.04-5.23,14.2-12.85c0.53-3.53,0.87-7.13,0.88-10.7c0.06-41.67,0.04-83.34,0.04-125.02c0-1.95,0-3.89,0-6.14   c8.58,0,16.75,0,25.45,0C288.21,380.69,288.21,412.63,288.21,445.1z"/>
	<path class="st2" d="M107.52,476.99c5.54,0,10.56,0,16.16,0c0,3.71-0.13,7.07,0.02,10.42c0.41,8.93,7.01,15.54,15.73,15.89   c12.46,0.51,19.09-3.9,19.84-14.3c0.62-8.54,0.27-17.16-0.04-25.74c-0.21-5.59-3.95-9.07-8.74-11.24   c-6.83-3.1-13.69-6.19-20.73-8.78c-23.54-8.66-32.37-22.64-30.33-53.69c0.95-14.51,6.2-27.37,18.91-35.64   c23.7-15.42,58.25-4.82,65.91,23.27c1.93,7.08,1.73,14.74,2.55,22.51c-9.34,0-17.54,0-25.68,0c-0.96-5.3-1.41-10.83-3.02-15.99   c-2.55-8.19-8.01-11.24-17.54-10.87c-7.06,0.28-13.13,4.77-14.42,12.2c-1.13,6.46-1.31,13.2-0.98,19.77   c0.31,6.21,4.33,10.55,9.99,12.98c7.87,3.38,15.77,6.69,23.81,9.63c17.39,6.36,25.55,18.73,26.49,37.1   c0.59,11.56,0.51,22.89-2.19,34.15c-5.32,22.14-23.41,32.15-46.14,30.21c-21.47-1.83-37.92-18.48-39.27-38.92   c-0.27-4.1-0.04-8.24-0.04-12.97C100.98,476.99,103.99,476.99,107.52,476.99z"/>
	<path class="st2" d="M492.1,511.74c-5.89-26.75-11.66-53.06-17.54-79.35c-6-26.84-12.08-53.65-18.25-80.45   c-0.32-1.37-1.87-3.44-2.93-3.49c-6.41-0.33-19.16-0.16-19.16-0.16s-26.67,119.3-40.07,179.21c7.62,0,14.43-0.2,21.22,0.08   c3.66,0.15,4.88-1.16,5.5-4.69c1.95-11.19,4.33-22.3,6.54-33.36h7.36h9.74h17.96c2.48,12.58,4.93,24.98,7.42,37.63h25.7   C494.38,521.88,493.27,517.03,492.1,511.74z"/>
	<path class="st3" d="M1158.04,358.87c0-3.72,0-6.9,0-10.33c25.65,0,50.76,0,76.19,0c0,8.01,0,15.83,0,24.12   c-16.85,0-33.51,0-50.42,0c0,17.62,0,34.77,0,52.53c14.64,0,29.1,0,43.78,0c0,8.28,0,15.94,0,24.08c-14.53,0-29.01,0-43.75,0   c0,17.77,0,35.07,0,52.86c16.95,0,33.61,0,50.48,0c0,8.53,0,16.56,0,24.97c-25.32,0-50.59,0-76.28,0   C1158.04,471.13,1158.04,415.27,1158.04,358.87z"/>
	<path class="st4" d="M972.43,517.27c0,3.56,0,6.6,0,9.93c-8.68,0-17.06,0-25.84,0c0-51.45,0-102.73,0-154.36   c-9.87,0-19.34,0-29.19,0c0-8.29,0-16.24,0-24.38c28.07,0,55.9,0,84.12,0c0,7.89,0,15.69,0,24.07c-9.38,0-18.98,0-29.09,0   C972.43,420.98,972.43,468.86,972.43,517.27z"/>
	<path class="st5" d="M312.27,384.72c0-12.34,0-24.14,0-36.18c8.65,0,16.67,0,25.27,0c0,50.97,0,101.86,0,153.3   c17.18,0,33.8,0,50.81,0c0,8.66,0,16.79,0,25.28c-25.08,0-50.18,0-76.08,0C312.27,479.9,312.27,432.58,312.27,384.72z"/>
	<path d="M1064.96,466.67c0-39.65,0-78.77,0-118.13c8.65,0,16.68,0,25.27,0c0,50.94,0,101.85,0,153.28c17.18,0,33.81,0,50.82,0   c0,8.64,0,16.78,0,25.29c-25.15,0-50.38,0-76.1,0C1064.96,507,1064.96,487.11,1064.96,466.67z"/>
	<path d="M1031.87,348.29c2.33,0.01,4.12,0,5.92,0.03c0.34,0,0.69,0.12,1.46,0.27c0,59.41,0,118.9,0,178.62c-8.17,0-16.33,0-24.75,0   c0-59.63,0-119,0-178.92C1020.28,348.29,1025.81,348.29,1031.87,348.29z"/>
	<path class="st6" d="M869.8,491.47c-8.67,38-28.95,68.57-60.2,91.59c-33.08,24.36-70.41,34.17-111.8,29.54   c-0.43-1.11-0.43-1.76-0.11-2.45c0.94-0.18,1.56-0.33,2.71-0.36c15.53-0.62,30.88,0.44,45.46-2.42   c42.83-8.43,76.25-31.71,100.24-68.21c9.23-14.03,15.83-29.23,19.68-45.87c0.43-0.68,0.72-1.13,1.39-1.63   C868.29,491.56,869.05,491.51,869.8,491.47z"/>
	<path class="st7" d="M569.93,391.86c11.96-28.85,31.16-51.94,57.18-68.97c43.43-28.41,90.12-34.35,139.71-17.8   c-0.45,1-1.08,1.52-2.08,2.03c-1.14,0-1.91,0.01-2.95-0.29c-23.44-7.23-46.85-9.39-70.88-5.33   c-46.86,7.91-82.43,32.45-107.92,72.05c-2.85,4.43-4.58,9.58-6.83,14.39c0.01-0.01,0.04-0.02-0.21,0.07   c-0.55,0.3-0.75,0.58-1.02,1.17c-0.45,0.48-0.75,0.73-1.28,1.07c-0.54,0.3-0.72,0.59-0.74,0.95c0.02,0,0.01-0.05-0.51,0.02   C571.25,391.47,570.59,391.67,569.93,391.86z"/>
	<path class="st6" d="M653.45,601.03c-31.43-13.1-55.76-34.53-73.35-63.44c-5.38-8.84-9.11-18.67-13.31-28.56   c0.84-0.83,1.4-1.14,2.2-1.34c0.41,0.18,0.58,0.26,0.79,0.71c8.96,24.14,22.6,44.77,41.5,61.76   c13.31,11.95,28.11,21.67,44.89,28.42c0.01,0.23,0.08,0.69-0.23,0.98C654.92,600.23,654.18,600.63,653.45,601.03z"/>
	<path class="st7" d="M806.58,325.41c18.37,12.07,32.74,27.91,43.76,47.1c-0.84,0.78-1.42,1.11-2.24,1.37   c-0.25-0.07-0.74-0.19-0.82-0.55c-7.96-10.26-15.4-20.56-23.9-29.89c-4.66-5.11-11.12-8.58-16.86-13.14   c-0.16-0.8-0.24-1.26,0.01-2.02C806.77,327.12,806.67,326.26,806.58,325.41z"/>
	<path class="st8" d="M569.7,392.05c0.89-0.38,1.55-0.58,2.73-0.42c0.15,1.54-0.14,2.75-0.59,3.91   c-5.98,15.24-10.24,30.87-10.93,47.59c-0.41,0.7-0.7,1.15-1.29,1.67c-0.88,0.22-1.46,0.37-2.04,0.52   c1.35-10.06,2.12-20.25,4.25-30.15C563.5,407.34,566.86,399.87,569.7,392.05z"/>
	<path class="st9" d="M806.49,325.17c0.18,1.1,0.27,1.95-0.29,2.97c-5.42-2.62-10.19-5.42-15.15-8.52c-2.18-1.47-4.07-2.8-6.14-3.74   c-6.56-2.99-13.19-5.84-19.79-8.74c0.62-0.52,1.25-1.04,2.02-1.83C781.48,309.41,794.39,316.29,806.49,325.17z"/>
	<path class="st8" d="M870.03,491.13c-0.98,0.38-1.73,0.43-2.87,0.06c1.03-13.62,2.5-26.83,3.78-40.05   c0.16-1.62-0.65-3.34-0.95-5.29c0.12-0.44,0.18-0.62,0.57-0.83c1.14-0.36,1.95-0.69,2.76-1.01c-0.13,10.66,0,21.33-0.49,31.98   C872.6,480.95,871.15,485.86,870.03,491.13z"/>
	<path class="st8" d="M653.72,601.28c0.47-0.65,1.2-1.05,2.63-1.71c5.25,1.2,9.75,2.88,14.36,4.09c8.85,2.32,17.77,4.36,26.66,6.52   c0,0.65,0,1.31-0.01,2.29C682.28,611.44,667.92,607.31,653.72,601.28z"/>
	<path class="st7" d="M873.43,443.51c-0.92,0.81-1.73,1.14-2.94,1.02c-2.64-12.39-4.87-24.35-7.07-36.53   c0.04-0.23,0.09-0.69,0.49-0.69c1.18,0.03,1.97,0.06,2.75,0.09C868.95,419.28,871.24,431.15,873.43,443.51z"/>
	<path class="st8" d="M866.67,406.99c-0.8,0.39-1.58,0.36-2.94-0.02c-5.51-11.24-10.45-22.13-15.38-33.02   c0.58-0.33,1.16-0.66,2.07-1.06C856.05,384.08,861.37,395.32,866.67,406.99z"/>
	<path class="st8" d="M568.74,507.58c-0.55,0.31-1.11,0.61-1.96,1.03c-3.18-11.82-6.07-23.76-8.49-36.18   c1.21-0.45,1.96-0.41,2.75,0.07C563.64,484.49,566.19,496.03,568.74,507.58z"/>
	<path class="st6" d="M561,472.06c-0.75-0.04-1.5-0.07-2.62-0.1c-0.65-8.56-0.93-17.14-1.01-26.18c0.78-0.61,1.37-0.75,2.29-0.44   c0.74,8.92,1.13,17.37,1.47,26.05C561.08,471.61,561,472.06,561,472.06z"/>
	<path class="st10" d="M865.64,493.51c-3.71,16.41-10.31,31.6-19.54,45.64c-24,36.5-57.41,59.79-100.24,68.21   c-14.58,2.87-29.93,1.81-45.27,2.12c2.06-2.71,4.59-4.88,6.82-7.32c2.51-2.74,4.74-5.73,7.45-8.54c1.33-0.51,2.31-1.09,3.63-1.75   c19.04-14.28,37.66-28.56,56.45-42.62c6.69-5.01,13.78-9.49,21.16-14.33c13.92-0.3,27.35-0.49,40.79-0.67c0-0.93,0-1.87,0-2.8   c-10.19-0.21-20.39-0.43-30.47-0.96c0.74-0.91,1.3-1.62,2.03-2.06C827.5,516.77,846.57,505.14,865.64,493.51z"/>
	<path class="st11" d="M865.78,493.28c-19.21,11.86-38.28,23.49-57.34,35.15c-0.72,0.44-1.28,1.15-2.46,2.19   c-9.79,0.45-19.05,0.45-28.05,0.45c-0.48-1.65-0.76-2.15-0.75-2.64c0.04-8.76,0.11-17.52,0.55-26.3   c13.77-7.89,27.2-15.73,40.54-23.69c1.56-0.93,2.7-2.58,4.46-4.01c13.62,1.09,30.6,0.22,34.24-2.49c-2.1-0.47-3.49-1-4.9-1.05   c-3.22-0.13-6.46-0.24-9.67,0.01c-4.04,0.32-5.69-1.22-4.53-5.24c1.81-0.73,3.29-1.35,4.63-2.19c9.16-5.75,18.29-11.55,27.43-17.33   c0.36,1.68,1.17,3.39,1.01,5.02c-1.29,13.22-2.76,26.42-4.16,40.1C866.5,492.14,866.21,492.6,865.78,493.28z"/>
	<path class="st12" d="M714.51,593.54c-2.35,2.88-4.59,5.87-7.09,8.61c-2.23,2.44-4.76,4.61-7.35,7.2c-0.81,0.45-1.44,0.6-2.37,0.78   c-9.21-2.12-18.13-4.17-26.97-6.48c-4.62-1.21-9.11-2.89-14.06-4.37c-0.4-0.02-0.47-0.48-0.16-0.88   c13.3-12.25,26.15-24.24,39.32-35.87c5.72-5.05,12.09-9.37,18.33-13.53C714.38,564.18,714.44,578.86,714.51,593.54z"/>
	<path class="st13" d="M576.16,387.96c2.25-4.82,3.98-9.97,6.83-14.4c25.49-39.6,61.06-64.14,107.92-72.05   c24.03-4.06,47.44-1.9,70.83,5.57c0.23,0.54,0.19,1.02-0.23,1.04c-4.12,1.4-7.82,2.77-11.94,4.18c-2.13,0.54-3.83,1.07-5.55,1.55   c-8.75,2.41-17.51,4.8-26.32,6.79c-0.15-5.62-0.15-5.62-3.36-4.82c-0.26,0.16-0.42,0.29-0.4,0.37c0.06,0.23,0.2,0.44,0.29,1.09   c-0.26,2.67-0.51,4.9-1.17,7.15c-15.8,6.18-31.22,12.25-46.55,18.55c-6.53,2.68-12.85,5.85-19.75,8.91   c-10.27,0.33-20.06,0.55-29.84,0.78c-0.02,0.87-0.03,1.74-0.05,2.61c5.85,0.17,11.7,0.34,17.48,0.87   c-5.5,3.28-10.95,6.16-16.37,9.1C604.04,372.81,590.1,380.39,576.16,387.96z"/>
	<path class="st12" d="M576.17,387.95c13.93-7.56,27.87-15.14,41.82-22.7c5.42-2.94,10.87-5.82,16.87-9.22   c6.76-0.49,12.96-0.49,19.39-0.49c0,12.14,0,23.21-0.41,34.38c-12.22,5.94-24.07,11.72-35.81,17.69c-1.57,0.8-2.64,2.56-4.44,3.98   c-6.6,0.05-12.7-0.07-18.8-0.02c-6.02,0.05-12.04,0.27-18.06,0.41c0.01,0.89,0.03,1.77,0.04,2.66c6.03,0,12.07,0,18.38,0   c0,2.85,0,4.59-0.36,6.54c-1.74,1.05-3.14,1.85-4.49,2.72c-9.76,6.32-19.52,12.65-29.28,18.98c0.58-16.47,4.83-32.1,10.82-47.34   c0.45-1.15,0.75-2.37,1.11-3.98c-0.01-0.42,0.01-0.37,0.21-0.48c0.49-0.31,0.67-0.58,0.75-0.93c0.29-0.25,0.59-0.49,1.29-1.06   c0.72-0.52,0.93-0.8,1.02-1.16C576.21,387.93,576.18,387.94,576.17,387.95z"/>
	<path class="st14" d="M761.93,308.09c0,0,0.04-0.48,0.09-0.72c0.81-0.24,1.58-0.25,2.72-0.25c6.98,2.91,13.61,5.76,20.17,8.75   c2.07,0.94,3.97,2.27,5.71,3.85c-1.78,6.51-3.32,12.59-5.06,18.92c-0.8,0.43-1.4,0.6-2.23,0.87c-0.51,0.27-0.72,0.52-1.27,0.87   c-4.1,1.11-7.79,2.17-11.41,2.88c10.61-10.51,9.24-27.57-5.06-32.3C764.2,310.52,763.14,309.08,761.93,308.09z"/>
	<path class="st8" d="M573.66,390.25c0.16,0.25-0.02,0.53-0.53,0.84C572.95,390.83,573.12,390.55,573.66,390.25z"/>
	<path class="st13" d="M575.96,388.01c0.16,0.27-0.04,0.55-0.61,0.84C575.21,388.59,575.41,388.31,575.96,388.01z"/>
	<path class="st15" d="M713.98,548.52c-6.07,4.65-12.44,8.96-18.16,14.01c-13.17,11.63-26.02,23.62-39.33,35.64   c-17.09-6.35-31.9-16.06-45.2-28.02c-18.91-16.99-32.55-37.62-41.05-61.89c12.94-3.21,25.68-5.26,37.98-8.81   c15.62-4.51,30.88-10.23,46.38-14.94c-0.16,15.48-0.41,30.48-0.66,45.55c-19.79,0.48-38.7-0.53-57.55,0.38   c0.01,0.86,0.02,1.72,0.03,2.59c39.22,0,78.43,0,118.4,0C714.5,538.95,714.24,543.73,713.98,548.52z"/>
	<path class="st16" d="M654.52,484.01c-15.42,5.2-30.68,10.93-46.3,15.44c-12.3,3.55-25.04,5.6-38.03,8.44   c-0.62,0.04-0.78-0.04-1.19-0.22c-2.81-11.64-5.36-23.19-7.95-35.18c-0.04-0.44,0.04-0.89,0.55-1.14   c11.41-2.38,22.32-4.51,33.33-6.17c-0.02,2.19-0.14,3.9-0.34,6.77c-6.38,0-12.34,0-18.3,0c0.01,0.99,0.01,1.99,0.02,2.98   c12.99,0.14,25.99,0.02,38.99,0.04c13.16,0.02,26.32,0,39.78,0C654.84,478.68,654.68,481.35,654.52,484.01z"/>
	<path class="st17" d="M783.55,339.43c0.6-0.17,1.21-0.35,2.42-0.79c7.28-2.84,13.96-5.42,20.64-7.99   c5.65,4.21,12.11,7.68,16.78,12.8c8.51,9.33,15.95,19.63,23.51,30.04c-23.09,8.38-45.86,16.25-68.73,23.63   c-0.1-14.08-0.1-27.67-0.1-41.6c5.01,0,9.48,0,13.96,0c4.49,0,8.98,0,13.47,0c10.11,0,10.11,0,13.37-3.37   c-22.99,0-44.75,0-66.45-0.37c3.6-2.16,7.15-3.94,11.1-5.77c2.63-0.81,4.85-1.59,7.08-2.36c3.69-1.06,7.37-2.12,11.72-3.3   C783.26,340.03,783.45,339.77,783.55,339.43z"/>
	<path class="st18" d="M778.26,397.6c22.77-7.87,45.54-15.75,68.7-23.77c0.4-0.15,0.89-0.02,1.14,0.05   c5.19,10.96,10.12,21.85,15.24,33.08c0.17,0.35,0.12,0.81-0.32,1.08c-3,1.36-5.56,2.45-8.63,3.53c-25.6,0.01-50.7,0.01-76.14,0.01   C778.26,406.45,778.26,402.03,778.26,397.6z"/>
	<path class="st19" d="M806.53,330.31c-6.6,2.91-13.27,5.49-20.36,8.08c1.13-6.06,2.67-12.15,4.65-18.34   c5.2,2.68,9.96,5.47,15.06,8.4C806.29,329.05,806.37,329.51,806.53,330.31z"/>
	<path class="st10" d="M594.82,464.72c-10.91,2.13-21.82,4.26-33.18,6.42c-0.84-8.43-1.24-16.88-1.68-25.88   c0.24-0.99,0.54-1.44,0.95-2.14c9.87-6.58,19.62-12.91,29.39-19.23c1.35-0.87,2.75-1.67,4.59-2.21   C595.17,436.23,594.99,450.48,594.82,464.72z"/>
	<path class="st15" d="M854.9,411.58c2.56-1.08,5.13-2.17,8.09-3.3c2.63,11.91,4.87,23.86,7.17,36.3c0.01,0.65-0.05,0.83-0.17,1.27   c-9.2,6.05-18.33,11.85-27.49,17.6c-1.34,0.84-2.82,1.46-4.7,1.68c-0.48-15.21-0.36-29.93-0.6-44.64c-0.07-3.98,1.16-5.58,5.1-5.44   c3.41,0.12,6.83-0.05,10.24-0.16C854.71,414.82,856.85,414.62,854.9,411.58z"/>
	<path class="st20" d="M854.39,411.58c2.46,3.04,0.32,3.24-1.85,3.31c-3.41,0.11-6.83,0.27-10.24,0.16   c-3.95-0.14-5.17,1.47-5.1,5.44c0.24,14.71,0.12,29.43,0.2,44.65c-0.69,4.51,0.96,6.05,5,5.73c3.2-0.25,6.45-0.15,9.67-0.01   c1.41,0.06,2.79,0.58,4.9,1.05c-3.64,2.71-20.62,3.59-34.73,2.45c-15.31,0.07-29.71,0.07-44.88,0.07c0,9.87,0,18.78,0,27.7   c-0.07,8.76-0.14,17.52-0.18,26.29c0,0.49,0.27,0.99,0.75,2.64c9.01,0,18.26,0,27.94-0.13c10.63,0.09,20.82,0.3,31.01,0.51   c0,0.93,0,1.87,0,2.8c-13.43,0.18-26.87,0.37-41.28,0.49c-22.72-0.3-44.47-0.53-66.7-0.82c-4.01-0.05-7.53-0.05-10.98-0.05   c0,3.53,0,6.38-0.09,9.75c0.04,16.45,0.17,32.39,0.3,48.33c-0.97,0.58-1.95,1.16-3.28,1.67c-0.42-14.76-0.48-29.44-0.71-44.61   c0.09-5.27,0.35-10.05,0.67-15.98c-39.97,0-79.18,0-118.4,0c-0.01-0.86-0.02-1.72-0.03-2.59c18.85-0.91,37.77,0.1,57.55-0.38   c0.25-15.07,0.49-30.06,0.66-45.55c0.08-3.16,0.24-5.82,0.47-9.53c-13.47,0-26.62,0.01-39.78,0c-12.99-0.02-26,0.11-38.99-0.04   c-0.01-0.99-0.01-1.99-0.02-2.98c5.96,0,11.92,0,18.3,0c0.2-2.87,0.32-4.59,0.34-6.77c0.07-14.72,0.25-28.96,0.32-43.72   c-0.1-2.25-0.1-4-0.1-6.84c-6.31,0-12.35,0-18.38,0c-0.01-0.89-0.03-1.77-0.04-2.66c6.02-0.14,12.04-0.37,18.06-0.41   c6.1-0.05,12.2,0.08,19.3,0.07c13.98-0.06,26.96-0.06,40.16-0.06c0-7.62,0-14.69,0-21.76c0-11.07,0-22.13,0-34.27   c-6.43,0-12.63,0-19.32,0.13c-6.35-0.04-12.19-0.21-18.04-0.38c0.02-0.87,0.03-1.74,0.05-2.61c9.79-0.22,19.57-0.45,30.34-0.61   c22.64,0.07,44.3,0.07,66.21,0.07c0-9.82,0-18.77,0-27.72c0.25-2.24,0.5-4.47,0.91-7.39c0.16-0.88,0.15-1.07,0.14-1.27   c3.02-0.75,3.02-0.75,3.08,5.37c-0.1,9.52-0.12,18.12-0.27,26.73c-0.05,2.76,0.55,4.4,3.81,4.36c10.4-0.13,20.8-0.07,31.2-0.09   c21.76,0,43.51,0,66.5,0c-3.26,3.37-3.26,3.37-13.37,3.37c-4.49,0-8.98,0-13.47,0c-4.48,0-8.95,0-13.96,0c0,13.94,0,27.52,0.1,41.6   c0.1,4.92,0.1,9.34,0.1,14.48C803.69,411.59,828.79,411.59,854.39,411.58z M691.61,471.21c7.4,0,14.8,0,22.56,0   c0-3.46,0-6.1,0.2-9.75c0-13.37,0.01-26.75,0.22-41.08c0-1.7,0-3.4,0-5.4c-1.4,0-2.28,0-3.17,0c-34.15,0.02-68.29,0.03-102.44,0.07   c-1.79,0-3.58,0.34-5.37,0.38c-3.7,0.08-4.92,2.11-4.9,5.56c0.07,13.81,0.04,27.62-0.09,42.4c0.11,2.44,0.23,4.88,0.36,7.67   C629.83,471.06,660.21,471.06,691.61,471.21z M717.94,460.28c0,3.51,0,7.02,0,10.91c13,0,25.53,0.03,38.06-0.01   c23.87-0.07,47.74-0.25,71.61-0.2c4.72,0.01,6.62-1.36,6.51-6.46c-0.34-15.4-0.18-30.81-0.03-47.1c-1.83-0.81-3.66-2.31-5.5-2.32   c-34.89-0.23-69.79-0.29-104.68-0.38c-1.92-0.01-3.85,0-5.75,0c0,7.27-0.01,13.86,0,20.45   C718.19,443.24,718.23,451.3,717.94,460.28z M775.11,365.57c-0.06-1.17-0.12-2.34-0.08-4.5c0-1.73,0-3.45,0-4.95   c-14.5,0-28.81,0-44.1-0.36c-24.12,0-48.25,0-72.41,0c0,10.91,0,21.07-0.28,32.2c0,7.55,0.01,15.1,0.17,23.36   c0.69,0.05,1.38,0.11,2.91,0.23c1.13-0.02,2.25-0.05,4.29,0.17c1.89-0.08,3.77-0.16,6.66-0.17c8.98,0,17.97,0.06,26.95-0.02   c14.72-0.12,29.45-0.32,45.17-0.18c9.73,0,19.46,0,29.84,0c0-4.58,0-8.47,0.3-13.23C774.64,387.56,774.74,376.99,775.11,365.57z    M773.7,505.43c0-10.15,0-20.3,0-30.88c-11.97,0-23.8-0.07-35.63,0.02c-20.48,0.15-40.96,0.39-62.18,0.12c-5.69,0-11.37,0-17.42,0   c0,2.69,0,4.95-0.2,8.18c0,15.61,0,31.22,0,47.42c1.28,0,3.03-0.01,4.79,0c18.18,0.07,36.36,0.18,54.53,0.18   c6.83,0,13.65-0.28,21.47-0.12c11.25,0,22.49,0,34.37,0C773.43,522.03,773.43,514.21,773.7,505.43z"/>
	<path class="st11" d="M718.49,591.87c-0.47-15.86-0.6-31.8-0.28-48.28c4.03-3.56,7.61-6.59,11.19-9.62   c21.75,0.23,43.5,0.47,65.74,0.89c-6.41,4.9-13.5,9.38-20.19,14.39C756.15,563.31,737.52,577.59,718.49,591.87z"/>
	<path class="st21" d="M777.72,502.11c-0.37-8.9-0.37-17.81-0.37-27.68c15.16,0,29.56,0,44.45,0.05c-0.84,1.36-1.98,3.01-3.54,3.94   C804.92,486.39,791.49,494.22,777.72,502.11z"/>
	<path class="st12" d="M752.4,351.76c-10.45,0.39-20.85,0.33-31.25,0.46c-3.26,0.04-3.86-1.61-3.81-4.36   c0.15-8.6,0.17-17.21,0.33-26.31c8.85-2.9,17.61-5.3,26.36-7.71c1.72-0.47,3.42-1,5.76-1.21c1.74,0.85,2.81,1.51,3.96,1.95   c10.36,3.92,13.94,9.46,12.45,20.32c-0.52,3.78-2.03,7.42-3.09,11.13C759.55,347.82,756,349.61,752.4,351.76z"/>
	<path class="st16" d="M713.07,324.43c0.41,8.94,0.41,17.88,0.41,27.7c-21.91,0-43.58,0-65.73-0.17c5.92-3.12,12.24-6.29,18.77-8.98   C681.85,336.67,697.28,330.6,713.07,324.43z"/>
	<path class="st22" d="M763.5,346c0.66-3.67,2.18-7.31,2.69-11.09c1.49-10.86-2.09-16.39-12.45-20.32c-1.15-0.44-2.22-1.1-3.53-1.99   c3.49-1.71,7.19-3.08,11.3-4.48c1.63,0.96,2.69,2.4,4.07,2.86c14.3,4.73,15.67,21.79,5.06,32.3   C768.35,344.41,766.13,345.18,763.5,346z"/>
	<path class="st16" d="M714.34,315.81c0.2,0.14,0.21,0.34,0.07,0.78c-0.26,0.03-0.4-0.18-0.46-0.41   C713.93,316.1,714.08,315.97,714.34,315.81z"/>
	<path class="st21" d="M653.83,389.91c0.41,6.96,0.41,14.03,0.41,21.66c-13.2,0-26.18,0-39.66-0.05c0.8-1.36,1.87-3.13,3.44-3.93   C629.77,401.63,641.61,395.85,653.83,389.91z"/>
	<path class="st19" d="M783.32,339.52c0.13,0.25-0.07,0.51-0.61,0.76C782.6,340.04,782.81,339.79,783.32,339.52z"/>
	<path class="st21" d="M738.08,530.03c-6.83,0.15-13.65,0.44-20.48,0.44c-18.18,0.01-36.36-0.11-54.53-0.18   c-1.76-0.01-3.51,0-4.79,0c0-16.21,0-31.81,0.5-47.97c6.29-2.76,12.08-4.96,17.87-7.17c20.48-0.2,40.96-0.45,61.44-0.59   c11.83-0.08,23.66-0.02,35.63-0.02c0,10.59,0,20.73-0.51,31.38c-9.07,5.94-17.69,11.27-26.15,16.86   C743.86,524.9,741.06,527.6,738.08,530.03z"/>
	<path class="st21" d="M743.41,411.05c-14.72,0.17-29.45,0.37-44.17,0.49c-8.98,0.07-17.97,0.02-27.76-0.25   c-2.8-0.11-4.78,0.04-6.77,0.2c-1.13,0.02-2.25,0.05-4.02-0.18c-1.24-0.4-1.84-0.55-2.43-0.69c0-7.55-0.01-15.1,0.52-23.19   c18.77-8.06,37.04-15.53,55.26-23.14c6.04-2.53,11.93-5.43,17.89-8.16c14.31,0,28.62,0,43.11,0c0,1.5,0,3.23-0.28,5.7   c-0.16,2.03-0.03,3.31,0.09,4.59c-0.1,10.57-0.2,21.14-0.83,32.23c-3.16,1.62-5.76,2.8-8.41,3.83   C758.21,405.37,750.8,408.2,743.41,411.05z"/>
	<path class="st21" d="M833.92,418.31c0.03,15.41-0.14,30.82,0.21,46.22c0.11,5.1-1.78,6.47-6.51,6.46   c-23.87-0.05-47.74,0.13-71.61,0.2c-12.53,0.04-25.06,0.01-38.06,0.01c0-3.9,0-7.4,0.55-11.4c35.43-13.16,70.3-25.86,105.2-38.49   C827.02,420.1,830.51,419.3,833.92,418.31z"/>
	<path class="st23" d="M598.75,462.43c0-13.81,0.03-27.62-0.04-41.43c-0.02-3.44,1.2-5.47,4.9-5.56c1.79-0.04,3.58-0.37,5.37-0.38   c34.15-0.04,68.29-0.06,102.44-0.07c0.88,0,1.77,0,3.17,0c0,2,0,3.7-0.49,5.95c-30.02,11.68-59.48,22.97-89.1,33.86   C616.47,457.93,607.51,459.92,598.75,462.43z"/>
	<path class="st18" d="M598.69,462.91c8.83-3,17.78-4.98,26.31-8.11c29.61-10.89,59.08-22.18,88.99-33.38   c0.39,13.3,0.38,26.68-0.12,40.54c-8.09,3.36-15.68,6.24-23.27,9.11c-30.39,0-60.77,0-91.62,0   C598.85,468.28,598.74,465.84,598.69,462.91z"/>
	<path class="st18" d="M834.01,417.87c-3.5,1.43-6.98,2.23-10.32,3.43c-34.9,12.63-69.77,25.33-105.04,38.03   c-0.42-8.04-0.46-16.1-0.48-24.16c-0.01-6.59,0-13.18,0-20.45c1.9,0,3.83,0,5.75,0c34.9,0.09,69.79,0.15,104.68,0.38   C830.44,415.12,832.27,416.63,834.01,417.87z"/>
	<path class="st11" d="M731.42,355.94c-5.47,2.91-11.36,5.82-17.4,8.34c-18.21,7.61-36.48,15.08-55.11,22.66   c-0.38-10.11-0.38-20.28-0.38-31.18C682.68,355.76,706.81,355.76,731.42,355.94z"/>
	<path class="st18" d="M738.57,530.19c2.48-2.59,5.29-5.29,8.48-7.4c8.46-5.59,17.08-10.92,26.01-16.38   c0.37,7.8,0.37,15.62,0.37,23.94C761.55,530.35,750.31,530.35,738.57,530.19z"/>
	<path class="st24" d="M743.9,411.2c6.9-3.01,14.31-5.84,21.69-8.73c2.65-1.04,5.25-2.21,8.26-3.4c0.39,3.81,0.39,7.7,0.39,12.28   C763.86,411.36,754.13,411.36,743.9,411.2z"/>
	<path class="st23" d="M691.11,471.14c7.08-2.95,14.67-5.83,22.66-8.68c0.4,2.66,0.4,5.3,0.4,8.76   C706.41,471.21,699.01,471.21,691.11,471.14z"/>
	<path class="st25" d="M676.27,474.92c-5.42,2.44-11.2,4.65-17.39,6.91c-0.4-2.2-0.4-4.46-0.4-7.15   C664.53,474.69,670.21,474.69,676.27,474.92z"/>
	<path class="st23" d="M728.91,533.92c-3.1,3.08-6.68,6.1-10.62,9.16c-0.36-2.83-0.36-5.68-0.36-9.21   C721.38,533.87,724.9,533.87,728.91,533.92z"/>
	<path class="st24" d="M665.16,411.6c1.53-0.28,3.52-0.43,5.81-0.36C669.39,411.56,667.51,411.64,665.16,411.6z"/>
	<path class="st24" d="M774.97,365.99c-0.26-0.86-0.38-2.14-0.27-3.67C774.99,363.24,775.05,364.41,774.97,365.99z"/>
	<path class="st24" d="M658.33,410.97c0.52-0.21,1.11-0.06,1.93,0.3C659.79,411.43,659.1,411.37,658.33,410.97z"/>
</g>
<polygon class="st2" points="427.65,489.66 431.42,464.8 444.49,378.45 462.86,465.16 432.52,466.27 430.57,489.53 "/>
</svg>