<svg xmlns="http://www.w3.org/2000/svg" xmlns:xlink="http://www.w3.org/1999/xlink" version="1.1" id="Layer_1" x="0px" y="0px" style="enable-background:new 0 0 1302.55 909.82;" xml:space="preserve" viewBox="12.71 331.96 1136.61 318.15">
<style type="text/css">
	.st0{fill:#FFFFFF;}
	.st1{fill:#920303;}
	.st2{fill:#920202;}
	.st3{fill:#020202;}
	.st4{fill:#030303;}
	.st5{fill:#910000;}
	.st6{fill:#481F1C;}
	.st7{fill:#461E1B;}
	.st8{fill:#846966;}
	.st9{fill:#704F4E;}
	.st10{fill:#FDFAFA;}
	.st11{fill:#910001;}
	.st12{fill:#B84B4F;}
	.st13{fill:#B7494D;}
	.st14{fill:#900001;}
	.st15{fill:#AE333A;}
	.st16{fill:#920101;}
	.st17{fill:#B94D51;}
	.st18{fill:#910101;}
	.st19{fill:#B84A4E;}
	.st20{fill:#A9262D;}
	.st21{fill:#F4E0E1;}
	.st22{fill:#920001;}
	.st23{fill:#B53E43;}
	.st24{fill:#930203;}
	.st25{fill:#B64348;}
	.st26{fill:#C15D60;}
</style>
<g>
	<path class="st0" d="M472.82,509.04c2.89,11.94,5.78,23.87,8.68,36.63c4.49,9.37,8.23,19.2,13.6,28.04   c17.58,28.91,41.92,50.34,73.88,63.94c13.93,5.78,28.29,9.91,44.25,11.53c40.95,4.17,78.28-5.63,111.36-30   c31.25-23.02,51.53-53.59,60.66-92.26c0.9-4.93,2.34-9.84,2.57-14.81c0.5-10.64,0.37-21.32,0.7-32.96   c-2.29-11.87-4.58-23.75-6.85-36.45c-5.31-11.25-10.63-22.49-16.08-34.51c-11.28-18.74-25.65-34.58-44.2-47.14   c-12.02-8.63-24.93-15.51-39.76-20.31c-49.43-16.07-96.12-10.13-139.55,18.28c-26.02,17.02-45.22,40.11-57.63,69.34   c-2.62,7.63-5.98,15.11-7.66,22.94c-2.13,9.9-2.89,20.08-4.65,31.06C472.45,490.94,472.73,499.52,472.82,509.04z M203.21,480.69   c0-31.94,0-63.87,0-95.98c-8.7,0-16.87,0-25.45,0c0,2.25,0,4.2,0,6.14c0,41.67,0.02,83.34-0.04,125.02   c-0.01,3.57-0.34,7.17-0.88,10.7c-1.15,7.62-6.78,12.6-14.2,12.85c-8.4,0.28-14.26-3.98-15.97-12.01c-0.67-3.12-0.9-6.39-0.9-9.6   c-0.06-42.39-0.04-84.78-0.04-127.17c0-1.92,0-3.84,0-5.96c-8.74,0-16.91,0-25.24,0c-0.16,0.94-0.38,1.62-0.38,2.31   c-0.01,45.44-0.09,90.89,0.03,136.33c0.07,24.83,19.87,39.1,35.73,41.57c22.6,3.51,45.95-14.42,47-37.33   C203.56,512.32,203.13,497.03,203.21,480.69z M21.99,513.11c-3,0-6.01,0-9.19,0c0,4.73-0.23,8.86,0.04,12.97   c1.35,20.44,17.8,37.09,39.27,38.92c22.73,1.94,40.82-8.07,46.14-30.21c2.7-11.26,2.78-22.58,2.19-34.15   c-0.93-18.37-9.09-30.74-26.49-37.1c-8.04-2.94-15.94-6.26-23.81-9.63c-5.66-2.43-9.67-6.77-9.99-12.98   c-0.33-6.57-0.14-13.31,0.98-19.77c1.3-7.43,7.36-11.93,14.42-12.2c9.53-0.37,14.99,2.68,17.54,10.87   c1.61,5.16,2.06,10.69,3.02,15.99c8.14,0,16.34,0,25.68,0c-0.82-7.77-0.62-15.43-2.55-22.51c-7.67-28.09-42.22-38.7-65.91-23.27   c-12.71,8.27-17.96,21.13-18.91,35.64c-2.04,31.05,6.79,45.03,30.33,53.69c7.04,2.59,13.9,5.68,20.73,8.78   c4.79,2.17,8.54,5.65,8.74,11.24c0.31,8.57,0.66,17.2,0.04,25.74c-0.76,10.4-7.39,14.81-19.84,14.3   c-8.72-0.36-15.32-6.97-15.73-15.89c-0.15-3.34-0.02-6.7-0.02-10.42C33.08,513.11,28.06,513.11,21.99,513.11z M407.02,547.42   c-5.82-26.3-11.59-52.61-17.47-78.9c-6-26.84-12.08-53.65-18.25-80.45c-0.32-1.37-1.87-3.44-2.93-3.49   c-6.41-0.33-12.84-0.16-19.16-0.16c-13.42,60-26.67,119.3-40.07,179.21c7.62,0,14.43-0.2,21.22,0.08c3.66,0.15,4.88-1.16,5.5-4.69   c1.95-11.19,4.33-22.3,6.54-33.36c12,0,23.47,0,35.07,0c2.48,12.58,4.93,24.98,7.42,37.63c8.43,0,16.75,0,25.7,0   C409.38,558,408.27,553.16,407.02,547.42z M1073.04,395.53c0,55.86,0,111.73,0,167.71c25.69,0,50.96,0,76.28,0   c0-8.41,0-16.45,0-24.97c-16.88,0-33.54,0-50.48,0c0-17.79,0-35.09,0-52.86c14.74,0,29.22,0,43.75,0c0-8.14,0-15.8,0-24.08   c-14.68,0-29.14,0-43.78,0c0-17.77,0-34.91,0-52.53c16.92,0,33.57,0,50.42,0c0-8.29,0-16.11,0-24.12c-25.43,0-50.54,0-76.19,0   C1073.04,388.09,1073.04,391.28,1073.04,395.53z M887.43,552.87c0-47.88,0-95.77,0-144.21c10.11,0,19.71,0,29.09,0   c0-8.37,0-16.17,0-24.07c-28.23,0-56.05,0-84.12,0c0,8.13,0,16.09,0,24.38c9.86,0,19.33,0,29.19,0c0,51.62,0,102.91,0,154.36   c8.78,0,17.16,0,25.84,0C887.43,559.99,887.43,556.95,887.43,552.87z M227.27,421.38c0,47.32,0,94.65,0,141.86   c25.91,0,51,0,76.08,0c0-8.49,0-16.62,0-25.28c-17.01,0-33.63,0-50.81,0c0-51.44,0-102.33,0-153.3c-8.6,0-16.63,0-25.27,0   C227.27,396.7,227.27,408.5,227.27,421.38z M979.96,503.33c0,19.9,0,39.79,0,59.9c25.72,0,50.95,0,76.1,0c0-8.51,0-16.65,0-25.29   c-17.01,0-33.65,0-50.82,0c0-51.42,0-102.34,0-153.28c-8.59,0-16.63,0-25.27,0C979.96,424.02,979.96,463.14,979.96,503.33z    M946.34,384.41c-5.53,0-11.06,0-16.84,0c0,59.92,0,119.29,0,178.92c8.42,0,16.58,0,24.75,0c0-59.71,0-119.2,0-178.62   c-0.78-0.15-1.12-0.27-1.46-0.27C950.99,384.42,949.19,384.42,946.34,384.41z"/>
	<path class="st1" d="M203.21,481.23c-0.08,15.81,0.35,31.09-0.35,46.33c-1.05,22.91-24.39,40.84-47,37.33   c-15.86-2.46-35.66-16.73-35.73-41.57c-0.12-45.44-0.04-90.89-0.03-136.33c0-0.68,0.22-1.37,0.38-2.31c8.33,0,16.5,0,25.24,0   c0,2.12,0,4.04,0,5.96c0,42.39-0.02,84.78,0.04,127.17c0,3.2,0.23,6.47,0.9,9.6c1.72,8.03,7.57,12.3,15.97,12.01   c7.41-0.25,13.04-5.23,14.2-12.85c0.53-3.53,0.87-7.13,0.88-10.7c0.06-41.67,0.04-83.34,0.04-125.02c0-1.95,0-3.89,0-6.14   c8.58,0,16.75,0,25.45,0C203.21,416.81,203.21,448.75,203.21,481.23z"/>
	<path class="st2" d="M22.52,513.11c5.54,0,10.56,0,16.16,0c0,3.71-0.13,7.07,0.02,10.42c0.41,8.93,7.01,15.54,15.73,15.89   c12.46,0.51,19.09-3.9,19.84-14.3c0.62-8.54,0.27-17.16-0.04-25.74c-0.21-5.59-3.95-9.07-8.74-11.24   c-6.83-3.1-13.69-6.19-20.73-8.78c-23.54-8.66-32.37-22.64-30.33-53.69c0.95-14.51,6.2-27.37,18.91-35.64   c23.7-15.42,58.25-4.82,65.91,23.27c1.93,7.08,1.73,14.74,2.55,22.51c-9.34,0-17.54,0-25.68,0c-0.96-5.3-1.41-10.83-3.02-15.99   c-2.55-8.19-8.01-11.24-17.54-10.87c-7.06,0.28-13.13,4.77-14.42,12.2c-1.13,6.46-1.31,13.2-0.98,19.77   c0.31,6.21,4.33,10.55,9.99,12.98c7.87,3.38,15.77,6.69,23.81,9.63c17.39,6.36,25.55,18.73,26.49,37.1   c0.59,11.56,0.51,22.89-2.19,34.15c-5.32,22.14-23.41,32.15-46.14,30.21c-21.47-1.83-37.92-18.48-39.27-38.92   c-0.27-4.1-0.04-8.24-0.04-12.97C15.98,513.11,18.99,513.11,22.52,513.11z"/>
	<path class="st2" d="M407.1,547.86c1.18,5.29,2.28,10.14,3.49,15.43c-8.95,0-17.27,0-25.7,0c-2.5-12.65-4.94-25.05-7.42-37.63   c-11.6,0-23.07,0-35.07,0c-2.2,11.06-4.58,22.17-6.54,33.36c-0.62,3.53-1.83,4.84-5.5,4.69c-6.79-0.28-13.6-0.08-21.22-0.08   c13.39-59.91,26.65-119.21,40.07-179.21c6.32,0,12.75-0.17,19.16,0.16c1.06,0.05,2.62,2.12,2.93,3.49   c6.18,26.79,12.25,53.61,18.25,80.45C395.43,494.8,401.2,521.12,407.1,547.86z M362.66,449.44c-0.85-4.11-1.71-8.22-2.56-12.32   c-0.25,0-0.5,0.01-0.76,0.01c-4.08,21.07-8.16,42.15-12.3,63.49c8.92,0,17.04,0,25.5,0C369.21,483.58,365.95,466.97,362.66,449.44z   "/>
	<path class="st3" d="M1073.04,395c0-3.72,0-6.9,0-10.33c25.65,0,50.76,0,76.19,0c0,8.01,0,15.83,0,24.12c-16.85,0-33.51,0-50.42,0   c0,17.62,0,34.77,0,52.53c14.64,0,29.1,0,43.78,0c0,8.28,0,15.94,0,24.08c-14.53,0-29.01,0-43.75,0c0,17.77,0,35.07,0,52.86   c16.95,0,33.61,0,50.48,0c0,8.53,0,16.56,0,24.97c-25.32,0-50.59,0-76.28,0C1073.04,507.25,1073.04,451.39,1073.04,395z"/>
	<path class="st4" d="M887.43,553.39c0,3.56,0,6.6,0,9.93c-8.68,0-17.06,0-25.84,0c0-51.45,0-102.73,0-154.36   c-9.87,0-19.34,0-29.19,0c0-8.29,0-16.24,0-24.38c28.07,0,55.9,0,84.12,0c0,7.89,0,15.69,0,24.07c-9.38,0-18.98,0-29.09,0   C887.43,457.1,887.43,504.98,887.43,553.39z"/>
	<path class="st5" d="M227.27,420.84c0-12.34,0-24.14,0-36.18c8.65,0,16.67,0,25.27,0c0,50.97,0,101.86,0,153.3   c17.18,0,33.8,0,50.81,0c0,8.66,0,16.79,0,25.28c-25.08,0-50.18,0-76.08,0C227.27,516.03,227.27,468.7,227.27,420.84z"/>
	<path d="M979.96,502.79c0-39.65,0-78.77,0-118.13c8.65,0,16.68,0,25.27,0c0,50.94,0,101.85,0,153.28c17.18,0,33.81,0,50.82,0   c0,8.64,0,16.78,0,25.29c-25.15,0-50.38,0-76.1,0C979.96,543.13,979.96,523.23,979.96,502.79z"/>
	<path d="M946.87,384.41c2.33,0.01,4.12,0,5.92,0.03c0.34,0,0.69,0.12,1.46,0.27c0,59.41,0,118.9,0,178.62c-8.17,0-16.33,0-24.75,0   c0-59.63,0-119,0-178.92C935.28,384.41,940.81,384.41,946.87,384.41z"/>
	<path class="st6" d="M784.8,527.59c-8.67,38-28.95,68.57-60.2,91.59c-33.08,24.36-70.41,34.17-111.8,29.54   c-0.43-1.11-0.43-1.76-0.11-2.45c0.94-0.18,1.56-0.33,2.71-0.36c15.53-0.62,30.88,0.44,45.46-2.42   c42.83-8.43,76.25-31.71,100.24-68.21c9.23-14.03,15.83-29.23,19.68-45.87c0.43-0.68,0.72-1.13,1.39-1.63   C783.29,527.68,784.05,527.63,784.8,527.59z"/>
	<path class="st7" d="M484.93,427.98c11.96-28.85,31.16-51.94,57.18-68.97c43.43-28.41,90.12-34.35,139.71-17.8   c-0.45,1-1.08,1.52-2.08,2.03c-1.14,0-1.91,0.01-2.95-0.29c-23.44-7.23-46.85-9.39-70.88-5.33   c-46.86,7.91-82.43,32.45-107.92,72.05c-2.85,4.43-4.58,9.58-6.83,14.39c0.01-0.01,0.04-0.02-0.21,0.07   c-0.55,0.3-0.75,0.58-1.02,1.17c-0.45,0.48-0.75,0.73-1.28,1.07c-0.54,0.3-0.72,0.59-0.74,0.95c0.02,0,0.01-0.05-0.51,0.02   C486.25,427.59,485.59,427.79,484.93,427.98z"/>
	<path class="st6" d="M568.45,637.15c-31.43-13.1-55.76-34.53-73.35-63.44c-5.38-8.84-9.11-18.67-13.31-28.56   c0.84-0.83,1.4-1.14,2.2-1.34c0.41,0.18,0.58,0.26,0.79,0.71c8.96,24.14,22.6,44.77,41.5,61.76   c13.31,11.95,28.11,21.67,44.89,28.42c0.01,0.23,0.08,0.69-0.23,0.98C569.92,636.35,569.18,636.75,568.45,637.15z"/>
	<path class="st7" d="M721.58,361.53c18.37,12.07,32.74,27.91,43.76,47.1c-0.84,0.78-1.42,1.11-2.24,1.37   c-0.25-0.07-0.74-0.19-0.82-0.55c-7.96-10.26-15.4-20.56-23.9-29.89c-4.66-5.11-11.12-8.58-16.86-13.14   c-0.16-0.8-0.24-1.26,0.01-2.02C721.77,363.24,721.67,362.39,721.58,361.53z"/>
	<path class="st8" d="M484.7,428.17c0.89-0.38,1.55-0.58,2.73-0.42c0.15,1.54-0.14,2.75-0.59,3.91   c-5.98,15.24-10.24,30.87-10.93,47.59c-0.41,0.7-0.7,1.15-1.29,1.67c-0.88,0.22-1.46,0.37-2.04,0.52   c1.35-10.06,2.12-20.25,4.25-30.15C478.5,443.47,481.86,435.99,484.7,428.17z"/>
	<path class="st9" d="M721.49,361.29c0.18,1.1,0.27,1.95-0.29,2.97c-5.42-2.62-10.19-5.42-15.15-8.52c-2.18-1.47-4.07-2.8-6.14-3.74   c-6.56-2.99-13.19-5.84-19.79-8.74c0.62-0.52,1.25-1.04,2.02-1.83C696.48,345.53,709.39,352.41,721.49,361.29z"/>
	<path class="st8" d="M785.03,527.25c-0.98,0.38-1.73,0.43-2.87,0.06c1.03-13.62,2.5-26.83,3.78-40.05   c0.16-1.62-0.65-3.34-0.95-5.29c0.12-0.44,0.18-0.62,0.57-0.83c1.14-0.36,1.95-0.69,2.76-1.01c-0.13,10.66,0,21.33-0.49,31.98   C787.6,517.07,786.15,521.98,785.03,527.25z"/>
	<path class="st8" d="M568.72,637.4c0.47-0.65,1.2-1.05,2.63-1.71c5.25,1.2,9.75,2.88,14.36,4.09c8.85,2.32,17.77,4.36,26.66,6.52   c0,0.65,0,1.31-0.01,2.29C597.28,647.56,582.92,643.43,568.72,637.4z"/>
	<path class="st7" d="M788.43,479.64c-0.92,0.81-1.73,1.14-2.94,1.02c-2.64-12.39-4.87-24.35-7.07-36.53   c0.04-0.23,0.09-0.69,0.49-0.69c1.18,0.03,1.97,0.06,2.75,0.09C783.95,455.4,786.24,467.27,788.43,479.64z"/>
	<path class="st8" d="M781.67,443.11c-0.8,0.39-1.58,0.36-2.94-0.02c-5.51-11.24-10.45-22.13-15.38-33.02   c0.58-0.33,1.16-0.66,2.07-1.06C771.05,420.2,776.37,431.45,781.67,443.11z"/>
	<path class="st8" d="M483.74,543.7c-0.55,0.31-1.11,0.61-1.96,1.03c-3.18-11.82-6.07-23.76-8.49-36.18   c1.21-0.45,1.96-0.41,2.75,0.07C478.64,520.61,481.19,532.16,483.74,543.7z"/>
	<path class="st6" d="M476,508.18c-0.75-0.04-1.5-0.07-2.62-0.1c-0.65-8.56-0.93-17.14-1.01-26.18c0.78-0.61,1.37-0.75,2.29-0.44   c0.74,8.92,1.13,17.37,1.47,26.05C476.08,507.73,476,508.18,476,508.18z"/>
	<path class="st10" d="M362.68,449.9c3.27,17.07,6.53,33.68,9.87,50.71c-8.46,0-16.58,0-25.5,0c4.13-21.34,8.22-42.41,12.3-63.49   c0.25,0,0.5-0.01,0.76-0.01C360.96,441.22,361.81,445.33,362.68,449.9z"/>
	<path class="st11" d="M780.64,529.63c-3.71,16.41-10.31,31.6-19.54,45.64c-24,36.5-57.41,59.79-100.24,68.21   c-14.58,2.87-29.93,1.81-45.27,2.12c2.06-2.71,4.59-4.88,6.82-7.32c2.51-2.74,4.74-5.73,7.45-8.54c1.33-0.51,2.31-1.09,3.63-1.75   c19.04-14.28,37.66-28.56,56.45-42.62c6.69-5.01,13.78-9.49,21.16-14.33c13.92-0.3,27.35-0.49,40.79-0.67c0-0.93,0-1.87,0-2.8   c-10.19-0.21-20.39-0.43-30.47-0.96c0.74-0.91,1.3-1.62,2.03-2.06C742.5,552.89,761.57,541.26,780.64,529.63z"/>
	<path class="st12" d="M780.78,529.4c-19.21,11.86-38.28,23.49-57.34,35.15c-0.72,0.44-1.28,1.15-2.46,2.19   c-9.79,0.45-19.05,0.45-28.05,0.45c-0.48-1.65-0.76-2.15-0.75-2.64c0.04-8.76,0.11-17.52,0.55-26.3   c13.77-7.89,27.2-15.73,40.54-23.69c1.56-0.93,2.7-2.58,4.46-4.01c13.62,1.09,30.6,0.22,34.24-2.49c-2.1-0.47-3.49-1-4.9-1.05   c-3.22-0.13-6.46-0.24-9.67,0.01c-4.04,0.32-5.69-1.22-4.53-5.24c1.81-0.73,3.29-1.35,4.63-2.19c9.16-5.75,18.29-11.55,27.43-17.33   c0.36,1.68,1.17,3.39,1.01,5.02c-1.29,13.22-2.76,26.42-4.16,40.1C781.5,528.27,781.21,528.72,780.78,529.4z"/>
	<path class="st13" d="M629.51,629.67c-2.35,2.88-4.59,5.87-7.09,8.61c-2.23,2.44-4.76,4.61-7.35,7.2c-0.81,0.45-1.44,0.6-2.37,0.78   c-9.21-2.12-18.13-4.17-26.97-6.49c-4.62-1.21-9.11-2.89-14.06-4.37c-0.4-0.02-0.47-0.48-0.16-0.88   c13.3-12.25,26.15-24.24,39.32-35.87c5.72-5.05,12.09-9.37,18.33-13.53C629.38,600.3,629.44,614.98,629.51,629.67z"/>
	<path class="st14" d="M491.16,424.08c2.25-4.82,3.98-9.97,6.83-14.4c25.49-39.6,61.06-64.14,107.92-72.05   c24.03-4.06,47.44-1.9,70.83,5.57c0.23,0.54,0.19,1.02-0.23,1.04c-4.12,1.4-7.82,2.77-11.94,4.18c-2.13,0.54-3.83,1.07-5.55,1.55   c-8.75,2.41-17.51,4.8-26.32,6.79c-0.15-5.62-0.15-5.62-3.36-4.82c-0.26,0.16-0.42,0.29-0.4,0.37c0.06,0.23,0.2,0.44,0.29,1.09   c-0.26,2.67-0.51,4.9-1.17,7.15c-15.8,6.18-31.22,12.25-46.55,18.55c-6.53,2.68-12.85,5.85-19.75,8.91   c-10.27,0.33-20.06,0.55-29.84,0.78c-0.02,0.87-0.03,1.74-0.05,2.61c5.85,0.17,11.7,0.34,17.48,0.87   c-5.5,3.28-10.95,6.16-16.37,9.1C519.04,408.93,505.1,416.51,491.16,424.08z"/>
	<path class="st13" d="M491.17,424.07c13.93-7.56,27.87-15.14,41.82-22.7c5.42-2.94,10.87-5.82,16.87-9.22   c6.76-0.49,12.96-0.49,19.39-0.49c0,12.14,0,23.21-0.41,34.38c-12.22,5.94-24.07,11.72-35.81,17.69c-1.57,0.8-2.64,2.56-4.44,3.98   c-6.6,0.05-12.7-0.07-18.8-0.02c-6.02,0.05-12.04,0.27-18.06,0.41c0.01,0.89,0.03,1.77,0.04,2.66c6.03,0,12.07,0,18.38,0   c0,2.85,0,4.59-0.36,6.54c-1.74,1.05-3.14,1.85-4.49,2.72c-9.76,6.32-19.52,12.65-29.28,18.98c0.58-16.47,4.83-32.1,10.82-47.34   c0.45-1.15,0.75-2.37,1.11-3.98c-0.01-0.42,0.01-0.37,0.21-0.48c0.49-0.31,0.67-0.58,0.75-0.93c0.29-0.25,0.59-0.49,1.29-1.06   c0.72-0.52,0.93-0.8,1.02-1.16C491.21,424.05,491.18,424.06,491.17,424.07z"/>
	<path class="st15" d="M676.93,344.22c0,0,0.04-0.48,0.09-0.72c0.81-0.24,1.58-0.25,2.72-0.25c6.98,2.91,13.61,5.76,20.17,8.75   c2.07,0.94,3.97,2.27,5.71,3.85c-1.78,6.51-3.32,12.59-5.06,18.92c-0.8,0.43-1.4,0.6-2.23,0.87c-0.51,0.27-0.72,0.52-1.27,0.87   c-4.1,1.11-7.79,2.17-11.41,2.88c10.61-10.51,9.24-27.57-5.06-32.3C679.2,346.64,678.14,345.2,676.93,344.22z"/>
	<path class="st8" d="M488.66,426.37c0.16,0.25-0.02,0.53-0.53,0.84C487.95,426.95,488.12,426.67,488.66,426.37z"/>
	<path class="st14" d="M490.96,424.14c0.16,0.27-0.04,0.55-0.61,0.84C490.21,424.71,490.41,424.43,490.96,424.14z"/>
	<path class="st16" d="M628.98,584.64c-6.07,4.65-12.44,8.96-18.16,14.01c-13.17,11.63-26.02,23.62-39.33,35.64   c-17.09-6.35-31.9-16.06-45.2-28.02c-18.91-16.99-32.55-37.62-41.05-61.89c12.94-3.21,25.68-5.26,37.98-8.81   c15.62-4.51,30.88-10.23,46.38-14.94c-0.16,15.48-0.41,30.48-0.66,45.55c-19.79,0.48-38.7-0.53-57.55,0.38   c0.01,0.86,0.02,1.72,0.03,2.59c39.22,0,78.43,0,118.4,0C629.5,575.07,629.24,579.85,628.98,584.64z"/>
	<path class="st17" d="M569.52,520.14c-15.42,5.2-30.68,10.93-46.3,15.44c-12.3,3.55-25.04,5.6-38.03,8.44   c-0.62,0.04-0.78-0.04-1.19-0.22c-2.81-11.64-5.36-23.19-7.95-35.18c-0.04-0.44,0.04-0.89,0.55-1.14   c11.41-2.38,22.32-4.51,33.33-6.17c-0.02,2.19-0.14,3.9-0.34,6.77c-6.38,0-12.34,0-18.3,0c0.01,0.99,0.01,1.99,0.02,2.98   c12.99,0.14,25.99,0.02,38.99,0.04c13.16,0.02,26.32,0,39.78,0C569.84,514.81,569.68,517.47,569.52,520.14z"/>
	<path class="st18" d="M698.55,375.55c0.6-0.17,1.21-0.35,2.42-0.79c7.28-2.84,13.96-5.42,20.64-7.99   c5.65,4.21,12.11,7.68,16.78,12.8c8.51,9.33,15.95,19.63,23.51,30.04c-23.09,8.38-45.86,16.25-68.73,23.63   c-0.1-14.08-0.1-27.67-0.1-41.6c5.01,0,9.48,0,13.96,0c4.49,0,8.98,0,13.47,0c10.11,0,10.11,0,13.37-3.37   c-22.99,0-44.75,0-66.45-0.37c3.6-2.16,7.15-3.94,11.1-5.77c2.63-0.81,4.85-1.59,7.08-2.36c3.69-1.06,7.37-2.12,11.72-3.3   C698.26,376.15,698.45,375.89,698.55,375.55z"/>
	<path class="st19" d="M693.26,433.72c22.77-7.87,45.54-15.75,68.7-23.77c0.4-0.15,0.89-0.02,1.14,0.05   c5.19,10.96,10.12,21.85,15.24,33.08c0.17,0.35,0.12,0.81-0.32,1.08c-3,1.36-5.56,2.45-8.63,3.53c-25.6,0.01-50.7,0.01-76.14,0.01   C693.26,442.57,693.26,438.15,693.26,433.72z"/>
	<path class="st20" d="M721.53,366.43c-6.6,2.91-13.27,5.49-20.36,8.08c1.13-6.06,2.67-12.15,4.65-18.34   c5.2,2.68,9.96,5.47,15.06,8.4C721.29,365.17,721.37,365.63,721.53,366.43z"/>
	<path class="st11" d="M509.82,500.84c-10.91,2.13-21.82,4.26-33.18,6.42c-0.84-8.43-1.24-16.88-1.68-25.88   c0.24-0.99,0.54-1.44,0.95-2.14c9.87-6.58,19.62-12.91,29.39-19.23c1.35-0.87,2.75-1.67,4.59-2.21   C510.17,472.35,509.99,486.6,509.82,500.84z"/>
	<path class="st16" d="M769.9,447.7c2.56-1.08,5.13-2.17,8.09-3.3c2.63,11.91,4.87,23.86,7.17,36.3c0.01,0.65-0.05,0.83-0.17,1.27   c-9.2,6.05-18.33,11.85-27.49,17.6c-1.34,0.84-2.82,1.46-4.7,1.68c-0.48-15.21-0.36-29.93-0.6-44.64c-0.07-3.98,1.16-5.58,5.1-5.44   c3.41,0.12,6.83-0.05,10.24-0.16C769.71,450.95,771.85,450.75,769.9,447.7z"/>
	<path class="st21" d="M769.39,447.71c2.46,3.04,0.32,3.24-1.85,3.31c-3.41,0.11-6.83,0.27-10.24,0.16   c-3.95-0.14-5.17,1.47-5.1,5.44c0.24,14.71,0.12,29.43,0.2,44.65c-0.69,4.51,0.96,6.05,5,5.73c3.2-0.25,6.45-0.15,9.67-0.01   c1.41,0.06,2.79,0.58,4.9,1.05c-3.64,2.71-20.62,3.59-34.73,2.45c-15.31,0.07-29.71,0.07-44.88,0.07c0,9.87,0,18.78,0,27.7   c-0.07,8.76-0.14,17.52-0.18,26.29c0,0.49,0.27,0.99,0.75,2.64c9.01,0,18.26,0,27.94-0.13c10.63,0.09,20.82,0.3,31.01,0.51   c0,0.93,0,1.87,0,2.8c-13.43,0.18-26.87,0.37-41.28,0.49c-22.72-0.3-44.47-0.53-66.7-0.82c-4.01-0.05-7.53-0.05-10.98-0.05   c0,3.53,0,6.38-0.09,9.75c0.04,16.45,0.17,32.39,0.3,48.33c-0.97,0.58-1.95,1.16-3.28,1.67c-0.42-14.76-0.48-29.44-0.71-44.61   c0.09-5.27,0.35-10.05,0.67-15.98c-39.97,0-79.18,0-118.4,0c-0.01-0.86-0.02-1.72-0.03-2.59c18.85-0.91,37.77,0.1,57.55-0.38   c0.25-15.07,0.49-30.06,0.66-45.55c0.08-3.16,0.24-5.82,0.47-9.53c-13.47,0-26.62,0.01-39.78,0c-12.99-0.02-26,0.11-38.99-0.04   c-0.01-0.99-0.01-1.99-0.02-2.98c5.96,0,11.92,0,18.3,0c0.2-2.87,0.32-4.59,0.34-6.77c0.07-14.72,0.25-28.96,0.32-43.72   c-0.1-2.25-0.1-4-0.1-6.84c-6.31,0-12.35,0-18.38,0c-0.01-0.89-0.03-1.77-0.04-2.66c6.02-0.14,12.04-0.37,18.06-0.41   c6.1-0.05,12.2,0.08,19.3,0.07c13.98-0.06,26.96-0.06,40.16-0.06c0-7.62,0-14.69,0-21.76c0-11.07,0-22.13,0-34.27   c-6.43,0-12.63,0-19.32,0.13c-6.35-0.04-12.19-0.21-18.04-0.38c0.02-0.87,0.03-1.74,0.05-2.61c9.79-0.22,19.57-0.45,30.34-0.61   c22.64,0.07,44.3,0.07,66.21,0.07c0-9.82,0-18.77,0-27.72c0.25-2.24,0.5-4.47,0.91-7.39c0.16-0.88,0.15-1.07,0.14-1.27   c3.02-0.75,3.02-0.75,3.08,5.37c-0.1,9.52-0.12,18.12-0.27,26.73c-0.05,2.76,0.55,4.4,3.81,4.36c10.4-0.13,20.8-0.07,31.2-0.09   c21.76,0,43.51,0,66.5,0c-3.26,3.37-3.26,3.37-13.37,3.37c-4.49,0-8.98,0-13.47,0c-4.48,0-8.95,0-13.96,0c0,13.94,0,27.52,0.1,41.6   c0.1,4.92,0.1,9.34,0.1,14.48C718.69,447.71,743.79,447.71,769.39,447.71z M606.61,507.34c7.4,0,14.8,0,22.56,0   c0-3.46,0-6.1,0.2-9.75c0-13.37,0.01-26.75,0.22-41.08c0-1.7,0-3.4,0-5.4c-1.4,0-2.28,0-3.17,0c-34.15,0.02-68.29,0.03-102.44,0.07   c-1.79,0-3.58,0.34-5.37,0.38c-3.7,0.08-4.92,2.11-4.9,5.56c0.07,13.81,0.04,27.62-0.09,42.4c0.11,2.44,0.23,4.88,0.36,7.67   C544.83,507.19,575.21,507.19,606.61,507.34z M632.94,496.4c0,3.51,0,7.02,0,10.91c13,0,25.53,0.03,38.06-0.01   c23.87-0.07,47.74-0.25,71.61-0.2c4.72,0.01,6.62-1.36,6.51-6.46c-0.34-15.4-0.18-30.81-0.03-47.1c-1.83-0.81-3.66-2.31-5.5-2.32   c-34.89-0.23-69.79-0.29-104.68-0.38c-1.92-0.01-3.85,0-5.75,0c0,7.27-0.01,13.86,0,20.45   C633.19,479.36,633.23,487.42,632.94,496.4z M690.11,401.7c-0.06-1.17-0.12-2.34-0.08-4.5c0-1.73,0-3.45,0-4.95   c-14.5,0-28.81,0-44.1-0.36c-24.12,0-48.25,0-72.41,0c0,10.91,0,21.07-0.28,32.2c0,7.55,0.01,15.1,0.17,23.36   c0.69,0.05,1.38,0.11,2.91,0.23c1.13-0.02,2.25-0.05,4.29,0.17c1.89-0.08,3.77-0.16,6.66-0.17c8.98,0,17.97,0.06,26.95-0.02   c14.72-0.12,29.45-0.32,45.17-0.18c9.73,0,19.46,0,29.84,0c0-4.58,0-8.47,0.3-13.23C689.64,423.68,689.74,413.11,690.11,401.7z    M688.7,541.55c0-10.15,0-20.3,0-30.88c-11.97,0-23.8-0.07-35.63,0.02c-20.48,0.15-40.96,0.39-62.18,0.12c-5.69,0-11.37,0-17.42,0   c0,2.69,0,4.95-0.2,8.18c0,15.61,0,31.22,0,47.42c1.28,0,3.03-0.01,4.79,0c18.18,0.07,36.36,0.18,54.53,0.18   c6.83,0,13.65-0.28,21.47-0.12c11.25,0,22.49,0,34.37,0C688.43,558.15,688.43,550.33,688.7,541.55z"/>
	<path class="st12" d="M633.49,627.99c-0.47-15.86-0.6-31.8-0.28-48.28c4.03-3.56,7.61-6.59,11.19-9.62   c21.75,0.23,43.5,0.47,65.74,0.89c-6.41,4.9-13.5,9.38-20.19,14.39C671.15,599.43,652.52,613.71,633.49,627.99z"/>
	<path class="st22" d="M692.72,538.24c-0.37-8.9-0.37-17.81-0.37-27.68c15.16,0,29.56,0,44.45,0.05c-0.84,1.36-1.98,3.01-3.54,3.94   C719.92,522.51,706.49,530.35,692.72,538.24z"/>
	<path class="st13" d="M667.4,387.89c-10.45,0.39-20.85,0.33-31.25,0.46c-3.26,0.04-3.86-1.61-3.81-4.36   c0.15-8.6,0.17-17.21,0.33-26.31c8.85-2.9,17.61-5.3,26.36-7.71c1.72-0.47,3.42-1,5.76-1.21c1.74,0.85,2.81,1.51,3.96,1.95   c10.36,3.92,13.94,9.46,12.45,20.32c-0.52,3.78-2.03,7.42-3.09,11.13C674.55,383.94,671,385.73,667.4,387.89z"/>
	<path class="st17" d="M628.07,360.55c0.41,8.94,0.41,17.88,0.41,27.7c-21.91,0-43.58,0-65.73-0.17c5.92-3.12,12.24-6.29,18.77-8.98   C596.85,372.8,612.28,366.73,628.07,360.55z"/>
	<path class="st23" d="M678.5,382.12c0.66-3.67,2.18-7.31,2.69-11.09c1.49-10.86-2.09-16.39-12.45-20.32   c-1.15-0.44-2.22-1.1-3.53-1.99c3.49-1.71,7.19-3.08,11.3-4.48c1.63,0.96,2.69,2.4,4.07,2.86c14.3,4.73,15.67,21.79,5.06,32.3   C683.35,380.53,681.13,381.31,678.5,382.12z"/>
	<path class="st17" d="M629.34,351.94c0.2,0.14,0.21,0.34,0.07,0.78c-0.26,0.03-0.4-0.18-0.46-0.41   C628.93,352.23,629.08,352.1,629.34,351.94z"/>
	<path class="st22" d="M568.83,426.03c0.41,6.96,0.41,14.03,0.41,21.66c-13.2,0-26.18,0-39.66-0.05c0.8-1.36,1.87-3.13,3.44-3.93   C544.77,437.75,556.61,431.98,568.83,426.03z"/>
	<path class="st20" d="M698.32,375.64c0.13,0.25-0.07,0.51-0.61,0.76C697.6,376.16,697.81,375.91,698.32,375.64z"/>
	<path class="st22" d="M653.08,566.16c-6.83,0.15-13.65,0.44-20.48,0.44c-18.18,0.01-36.36-0.11-54.53-0.18   c-1.76-0.01-3.51,0-4.79,0c0-16.21,0-31.81,0.5-47.97c6.29-2.76,12.08-4.96,17.87-7.17c20.48-0.2,40.96-0.45,61.44-0.59   c11.83-0.08,23.66-0.02,35.63-0.02c0,10.59,0,20.73-0.51,31.38c-9.07,5.94-17.69,11.27-26.15,16.86   C658.86,561.03,656.06,563.73,653.08,566.16z"/>
	<path class="st22" d="M658.41,447.17c-14.72,0.17-29.45,0.37-44.17,0.49c-8.98,0.07-17.97,0.02-27.76-0.25   c-2.8-0.11-4.78,0.04-6.77,0.2c-1.13,0.02-2.25,0.05-4.02-0.18c-1.24-0.4-1.84-0.55-2.43-0.69c0-7.55-0.01-15.1,0.52-23.19   c18.77-8.06,37.04-15.53,55.26-23.14c6.04-2.53,11.93-5.43,17.89-8.16c14.31,0,28.62,0,43.11,0c0,1.5,0,3.23-0.28,5.7   c-0.16,2.03-0.03,3.31,0.09,4.59c-0.1,10.57-0.2,21.14-0.83,32.23c-3.16,1.62-5.76,2.8-8.41,3.83   C673.21,441.49,665.8,444.32,658.41,447.17z"/>
	<path class="st22" d="M748.92,454.44c0.03,15.41-0.14,30.82,0.21,46.22c0.11,5.1-1.78,6.47-6.51,6.46   c-23.87-0.05-47.74,0.13-71.61,0.2c-12.53,0.04-25.06,0.01-38.06,0.01c0-3.9,0-7.4,0.55-11.39c35.43-13.16,70.3-25.86,105.2-38.49   C742.02,456.22,745.51,455.42,748.92,454.44z"/>
	<path class="st24" d="M513.75,498.55c0-13.81,0.03-27.62-0.04-41.43c-0.02-3.44,1.2-5.47,4.9-5.56c1.79-0.04,3.58-0.37,5.37-0.38   c34.15-0.04,68.29-0.06,102.44-0.07c0.88,0,1.77,0,3.17,0c0,2,0,3.7-0.49,5.95c-30.02,11.68-59.48,22.97-89.1,33.86   C531.47,494.06,522.51,496.04,513.75,498.55z"/>
	<path class="st19" d="M513.69,499.03c8.83-3,17.78-4.98,26.31-8.11c29.61-10.89,59.08-22.18,88.99-33.38   c0.39,13.3,0.38,26.68-0.12,40.54c-8.09,3.36-15.68,6.24-23.27,9.11c-30.39,0-60.77,0-91.62,0   C513.85,504.4,513.74,501.96,513.69,499.03z"/>
	<path class="st19" d="M749.01,454c-3.5,1.43-6.98,2.23-10.32,3.43c-34.9,12.63-69.77,25.33-105.04,38.03   c-0.42-8.04-0.46-16.1-0.48-24.16c-0.01-6.59,0-13.18,0-20.45c1.9,0,3.83,0,5.75,0c34.9,0.09,69.79,0.15,104.68,0.38   C745.44,451.25,747.27,452.75,749.01,454z"/>
	<path class="st12" d="M646.42,392.06c-5.47,2.91-11.36,5.82-17.4,8.34c-18.21,7.61-36.48,15.08-55.11,22.66   c-0.38-10.11-0.38-20.28-0.38-31.18C597.68,391.88,621.81,391.88,646.42,392.06z"/>
	<path class="st19" d="M653.57,566.31c2.48-2.59,5.29-5.29,8.48-7.4c8.46-5.59,17.08-10.92,26.01-16.38   c0.37,7.8,0.37,15.62,0.37,23.94C676.55,566.47,665.31,566.47,653.57,566.31z"/>
	<path class="st25" d="M658.9,447.33c6.9-3.01,14.31-5.84,21.69-8.73c2.65-1.04,5.25-2.21,8.26-3.4c0.39,3.81,0.39,7.7,0.39,12.28   C678.86,447.48,669.13,447.48,658.9,447.33z"/>
	<path class="st24" d="M606.11,507.26c7.08-2.95,14.67-5.83,22.66-8.68c0.4,2.66,0.4,5.3,0.4,8.76   C621.41,507.34,614.01,507.34,606.11,507.26z"/>
	<path class="st26" d="M591.27,511.05c-5.42,2.44-11.2,4.65-17.39,6.91c-0.4-2.2-0.4-4.46-0.4-7.15   C579.53,510.81,585.21,510.81,591.27,511.05z"/>
	<path class="st24" d="M643.91,570.04c-3.1,3.08-6.68,6.1-10.62,9.16c-0.36-2.83-0.36-5.68-0.36-9.21   C636.38,569.99,639.9,569.99,643.91,570.04z"/>
	<path class="st25" d="M580.16,447.73c1.53-0.28,3.52-0.43,5.81-0.36C584.39,447.68,582.51,447.77,580.16,447.73z"/>
	<path class="st25" d="M689.97,402.12c-0.26-0.86-0.38-2.14-0.27-3.67C689.99,399.36,690.05,400.53,689.97,402.12z"/>
	<path class="st25" d="M573.33,447.09c0.52-0.21,1.11-0.06,1.93,0.3C574.79,447.55,574.1,447.5,573.33,447.09z"/>
</g>
</svg>