<svg xmlns="http://www.w3.org/2000/svg" xmlns:xlink="http://www.w3.org/1999/xlink" version="1.1" id="Layer_1" x="0px" y="0px" style="enable-background:new 0 0 1728 1296;" xml:space="preserve" viewBox="646.48 304.35 794.01 826">
<style type="text/css">
	.st0{fill:#7695D3;}
	.st1{fill:#3762ED;}
	.st2{fill:#6E8DEF;}
	.st3{fill:#2F2E34;}
	.st4{fill:#3C6ED8;}
	.st5{fill:#F3F5FE;}
	.st6{fill:#829CF4;}
	.st7{fill:#3D83AF;}
	.st8{fill:#B6B6B6;}
	.st9{fill:#CDCDCD;}
	.st10{fill:#7E7E7E;}
	.st11{fill:#3861E9;}
</style>
<path class="st0" d="M995.41,815.45c-1.9,1.91-3.96,3.85-6.07,5.74c-1.38,1.24-2.83,2.41-4.36,3.48  C987.36,820.43,991.23,817.88,995.41,815.45z"/>
<path class="st0" d="M1000.15,812.22c-0.58,0.71-1.34,1.42-2.29,2.14C998.44,813.66,999.2,812.94,1000.15,812.22z"/>
<path class="st0" d="M997.51,814.35c-0.4,0.43-1,0.84-1.76,1.18C996.15,815.08,996.74,814.7,997.51,814.35z"/>
<path class="st0" d="M1002.37,810.71c-0.12,0.28-0.42,0.56-0.87,0.89C1001.63,811.34,1001.91,811.03,1002.37,810.71z"/>
<path class="st0" d="M1001.19,811.67c-0.08,0.16-0.32,0.34-0.72,0.55C1000.55,812.05,1000.79,811.87,1001.19,811.67z"/>
<path class="st0" d="M1004.56,809.62c-0.11,0.17-0.39,0.36-0.85,0.55C1003.81,810,1004.1,809.81,1004.56,809.62z"/>
<g>
	<path class="st1" d="M647.66,692.68c0.24-5.36,0.49-10.71,1.3-16.92c0.53-1.89,0.48-2.93,0.43-3.97   c0.91-6.03,1.82-12.05,3.49-18.72c7.69-7.15,14.46-13.85,21.58-20.15c18.13-16.03,36.09-32.26,54.72-47.69   c21.71-17.99,43.69-35.71,66.23-52.64c25.54-19.18,51.51-37.82,77.89-55.82c26.63-18.17,53.69-35.77,81.14-52.67   c30.18-18.59,60.73-36.64,91.69-53.89c24.27-13.53,49.45-25.42,74.14-38.2c8.45-4.37,16.64-9.23,24.96-13.87   c9.28,3.23,18.57,6.45,27.99,10.57c-4.18,5.28-1.58,7.21,2.78,8.73c7.3,2.55,14.66,5,21.82,7.94   c27.01,11.11,51.89,25.77,74.46,45.38c-19.42,9.65-38.45,19.11-58.03,28.59c-1.4,0.58-2.25,1.14-3.09,1.63   c0.01-0.07,0.15-0.02-0.37,0c-1.27,0.6-2.04,1.18-2.79,1.68c0.01-0.08,0.16-0.01-0.36,0c-1.38,0.95-2.24,1.89-3.03,2.9   c0.07,0.08-0.08-0.06-0.56,0c-1.2,0.61-1.92,1.17-2.63,1.69c0.01-0.03,0.08-0.03-0.49-0.03c-2.87,2.19-5.18,4.37-7.49,6.51   c0-0.04,0.07,0-0.5-0.06c-2.34,1.09-4.11,2.23-5.88,3.32c-0.01-0.06,0.09,0.02-0.48,0.03c-12.63,7.36-24.34,15.09-32.53,27.48   c-12.66-2.23-24.66-5.95-36.74-6.2c-23.09-0.48-39.82,10.57-36.42,34.39c0.06,0.45-0.35,0.96-0.67,1.79   c-13.79-3.81-27.75-7.21-41.4-11.58c-13.15-4.2-24.27-7.75-38.59,1.24c-33.15,20.8-68.16,38.64-102.44,57.63   c-12.85,7.12-25.59,14.49-38.71,21.06c-9.2,4.61-11.03,14.21-2.49,21.02c9.11,7.26,17.74,15.14,25.91,22.99   c-39.56,17.47-78.26,35.16-117.42,51.75c-21.54,9.13-43.8,16.6-65.85,24.47c-12.91,4.61-26.07,8.55-39.11,12.8   C655.25,697.47,650.34,699.44,647.66,692.68z"/>
	<path class="st2" d="M1144.82,317.7c-7.91,5.09-16.11,9.95-24.55,14.32c-24.69,12.78-49.87,24.67-74.14,38.2   c-30.96,17.26-61.5,35.31-91.69,53.89c-27.45,16.9-54.5,34.51-81.14,52.67c-26.38,17.99-52.35,36.64-77.89,55.82   c-22.54,16.93-44.52,34.65-66.23,52.64c-18.62,15.43-36.59,31.66-54.72,47.69c-7.12,6.3-13.9,13-21.38,19.55   c0.25-6.11,1.05-12.26,2.83-18.66c2.67-1.77,5.37-3.01,5.88-4.86c4.24-15.45,7.12-31.34,12.29-46.46   c5.08-14.84,12.24-28.98,18.76-43.3c1.49-3.27,4.06-6.05,6.62-9.28c21.95-17.64,42.91-35.72,65-52.3   c26.17-19.64,53.06-38.35,80.11-56.77c24.19-16.46,48.75-32.43,73.66-47.77c21.56-13.27,43.94-25.2,65.78-38.03   c12.8-7.52,25.25-15.65,38.6-23.52c19.1,0.44,37.47,0.85,55.83,1.39c4.01,0.12,7.62,0.12,7.83-5.23   C1105.65,310.88,1125.04,314.06,1144.82,317.7z"/>
	<path class="st2" d="M1437.02,663.62c1.22,9.16,3.47,18.32,3.47,27.48c0,24.78-0.96,49.55-2.31,75.02   c-3.46,2.2-6.14,3.71-9.39,5.33c-19.07,11.18-37.89,21.78-56.02,33.44c-41.49,26.66-82.75,53.67-123.87,80.9   c-11.73,7.77-22.53,16.94-33.98,25.15c-4.66,3.35-9.93,5.85-14.97,7.97c-0.51-25.48-0.98-50.18-0.9-74.99   c14.13-9.51,27.72-18.91,41.92-28.21c7.93,2.48,15.14,5.42,22.63,7.04c6.88,1.49,8.87-1.17,8.39-8.3   c-1.93-28.72-3.75-57.46-4.99-86.37c17.2-6.88,33.77-13.55,50.34-20.26c22.92-9.27,45.78-18.69,68.77-27.79   c14.34-5.67,28.88-10.86,43.97-16.27C1432.82,663.7,1434.92,663.66,1437.02,663.62z"/>
	<path class="st3" d="M1266.38,728.26c1.86,28.73,3.68,57.46,5.61,86.19c0.48,7.13-1.52,9.79-8.39,8.3c-7.49-1.63-14.7-4.57-23-7.41   c-4.53-2-8.09-3.53-12.14-5.4c-10.91-5.31-21.33-10.28-31.99-15.58c-0.98-0.54-1.73-0.75-2.71-1.46   c-14.12-7.6-28.01-14.69-42.22-22.22c-3.73-1.84-7.14-3.25-10.96-5.02c-13.15-7.84-25.9-15.31-39.09-23.12   c-2.14-1.02-3.85-1.68-5.92-2.75c-13.62-7.68-26.88-14.97-40.39-22.62c-1.61-1.07-2.97-1.77-4.67-2.89   c-8.11-4.87-15.88-9.31-23.97-14.2c-8.26-5.46-16.2-10.47-24.36-15.92c-1.72-1.12-3.2-1.8-5.18-2.76   c-9.47-5.8-18.45-11.33-27.76-17.28c-5.74-3.71-11.17-7-16.88-10.69c-2.1-1.31-3.91-2.2-6.06-3.44c-1.36-1.02-2.38-1.71-3.72-2.82   c-12.89-8.94-25.45-17.45-38.28-26.38c-2.18-1.63-4.1-2.85-6.33-4.51c-5.16-3.51-10-6.58-14.84-9.64   c-8.84-7.61-17.46-15.49-26.57-22.76c-8.54-6.81-6.71-16.41,2.49-21.02c13.13-6.58,25.86-13.94,38.71-21.06   c34.28-19,69.29-36.83,102.44-57.63c14.32-8.99,25.44-5.45,38.59-1.24c13.65,4.37,27.61,7.76,41.4,11.58   c0.32-0.83,0.73-1.35,0.67-1.79c-3.4-23.82,13.33-34.88,36.42-34.39c12.08,0.25,24.09,3.96,37.11,6.57   c5.26-3.18,9.63-6.72,13.81-10.47c6.38-5.72,12.63-11.58,18.93-17.39c0,0-0.09-0.09,0.45,0.18c2.33-0.98,4.12-2.22,5.91-3.46   c0,0-0.07-0.04,0.49-0.06c2.87-2.17,5.19-4.31,7.5-6.46c0,0-0.07,0,0.39-0.03c1.18-0.58,1.91-1.13,2.64-1.68   c0,0,0.16,0.14,0.55-0.07c1.29-1.06,2.19-1.92,3.09-2.78c0,0-0.15-0.07,0.35,0.01c1.27-0.51,2.03-1.1,2.8-1.7   c0,0-0.14-0.05,0.38-0.02c1.38-0.51,2.25-1.07,3.12-1.62c19.03-9.46,38.07-18.92,57.49-28.57c-22.56-19.61-47.44-34.28-74.46-45.38   c-7.15-2.94-14.51-5.38-21.82-7.94c-4.36-1.53-6.96-3.46-2.24-8.25c33.28,8.59,63.28,23.87,90.67,43.73   c18.71,13.56,36.7,28.47,53.29,44.56c33.12,32.14,61.43,68.19,81.07,110.42c2.01,4.31,3.15,9.03,4.2,14.43   c-2.19,1.32-3.89,1.77-5.87,1.73c-1.49-3.1-2.55-5.81-3.92-8.34c-5.74-10.6-11.56-21.14-17.48-32.28   c-10.19-15.01-20.27-29.43-30.3-43.89c-2.77-3.99-6.08-4.18-10.47-2.71c-30.06,10.09-58.02,24.29-83.8,42.73   c-4.77,3.41-8.98,7.6-13.56,11.28c-4.98,4.01-4.79,7.48-0.76,12.61c9.98,12.7,16.45,26.9,13.84,44.2   c-4.62,5.32-8.25,11.17-13.43,14.8c-5.4,3.78-6.43,6.27-1.83,11.12c6.44,6.77,12.8,13.66,18.66,20.92   c2.38,2.95,4.4,6.92,4.79,10.62c1.1,10.35,1.06,20.81,1.84,31.2C1262.47,680.32,1264.47,704.28,1266.38,728.26z M876.34,574.59   c2.37,0.88,4.74,1.76,7.81,3.51c133.21,65.04,259.71,141.39,381.24,226.8c0-1.47,0.14-3.28-0.02-5.07   c-5.25-57.58-10.48-115.17-15.94-172.74c-0.33-3.48-1.81-7.55-4.14-10.03c-10.77-11.46-21.25-23.39-33.26-33.45   c-31.42-26.31-65.3-49.23-102.86-65.8c-19.44-8.58-40.1-14.36-61.3-22.03c-7.78-1.81-15.64-3.36-23.32-5.51   c-7.68-2.15-14.06-0.59-21.04,3.42c-33.65,19.33-67.65,38.07-101.53,57.01c-8.82,4.93-17.65,9.82-27.64,14.81   c-2.42,1.49-4.83,2.99-8.88,5.49C870.23,572.37,872.87,573.13,876.34,574.59z M1221.04,579.73c17.72-1.25,26.16-14.22,20.47-31.3   c-5.89-17.68-17.35-31.34-31.77-42.35c-10.59-8.08-22.31-14.66-33.41-22.09c-18.8-12.57-39.72-18.28-62.01-17.38   c-7.22,0.29-14.86,3.93-21.23,7.83c-8.08,4.94-5.63,14.16-5.22,21.83c0.09,1.61,4.7,2.98,8.31,5.06   c22.82,12.38,46.25,23.79,68.29,37.44C1183.89,550.78,1201.75,565.31,1221.04,579.73z M1309.61,457.67   c8.13-3.28,16.26-6.55,26.25-10.57c-16.35-15.43-31.91-29.93-47.22-44.69c-4.77-4.6-9.26-4.73-15.15-2.25   c-27.84,11.74-54.78,25.07-79.25,43.01c-8.19,6.01-16.29,12.14-24.56,18.04c-2.36,1.69-5.18,2.73-6.74,3.53   c23.43,16.31,44.29,30.82,65.44,45.54C1250.43,487.14,1277.91,470.26,1309.61,457.67z M1002.27,648.49   c-22.79-12.67-45.15-26.23-68.51-37.74c-22.99-11.33-45.14-24.87-69.91-32.13c3.81,5.18,7.2,10.56,12.01,13.9   c25.6,17.76,51.06,35.81,77.5,52.26c40.29,25.06,81.14,49.23,122.13,73.14c34.3,20.01,68.93,39.5,103.81,58.48   c22.21,12.08,45.11,22.88,67.81,34.05c3.44,1.7,7.43,2.29,11.17,3.39c0.4-0.92,0.8-1.83,1.2-2.75   c-7.02-5.45-13.86-11.17-21.1-16.31c-23.47-16.68-46.56-33.98-70.79-49.48c-30.29-19.38-61.41-37.47-92.45-55.63   C1051.4,675.78,1027.22,662.65,1002.27,648.49z"/>
	<path class="st2" d="M882.48,606.86c5.5,2.83,10.35,5.89,15.4,10.19c0.18,17.95,0.14,34.67-0.47,51.48   c-21.28,9.82-41.62,20.45-62.77,29.07c-38.26,15.6-76.8,30.6-115.64,44.68c-20.13,7.3-41.15,12.11-62.41,18.02   c-2.77-0.05-4.9-0.08-7.03-0.11c-1.02-8.59-2.65-17.16-2.92-25.78c-0.42-13.55,0.09-27.13,0.61-41.22c3.09,6.24,8,4.27,12.84,2.69   c13.04-4.26,26.2-8.19,39.11-12.8c22.05-7.88,44.31-15.34,65.85-24.47C804.22,642.02,842.92,624.33,882.48,606.86z"/>
	<path class="st2" d="M712.91,944.17c-9.29-16.91-18.61-33.81-27.86-50.74c-1.4-2.56-2.5-5.27-3.37-8.54   c1.77-1.69,3.16-2.76,5.09-3.94c16.69-14.26,32.69-28.59,49.03-42.52c18.6-15.85,37.24-31.69,56.38-46.88   c17.71-14.06,36-27.4,54.22-40.81c17.11-12.59,34.46-24.85,52.14-36.74c0.6,25.35,0.76,50.18,0.37,75.12   c-7.47,5.37-14.42,10.58-21.28,15.91c-25.37,19.74-50.79,39.43-76.04,59.33c-10.04,7.91-19.79,16.19-29.49,24.51   c-12.3,10.56-24.64,21.1-36.55,32.1C727.64,928.29,720.44,936.41,712.91,944.17z"/>
	<path class="st1" d="M713.11,944.68c7.33-8.27,14.53-16.39,22.46-23.71c11.91-11,24.24-21.54,36.55-32.1   c9.7-8.32,19.45-16.6,29.49-24.51c25.25-19.9,50.66-39.59,76.04-59.33c6.86-5.34,13.81-10.54,21.35-15.14   c1.11,38.27,1.59,75.87,1.52,113.56c-5.8,3.15-10.87,6.58-16.31,9.23c-25.36,12.34-50.87,24.39-76.25,36.69   c-13.59,6.59-26.89,13.79-40.59,20.15c-9.34,4.34-19.14,7.69-28.74,11.48C730.18,969.06,721.74,957.13,713.11,944.68z"/>
	<path class="st2" d="M738.82,981.5c9.4-4.3,19.2-7.65,28.55-11.98c13.7-6.36,27-13.56,40.59-20.15   c25.38-12.31,50.88-24.35,76.25-36.69c5.44-2.65,10.51-6.08,16.37-8.47c0.63,23.72,0.64,46.76,0.08,69.92   c-7.58,3.36-14.68,6.42-21.58,9.89c-28.52,14.3-56.99,28.73-86.07,43.13c-3.26,0.58-5.92,1.13-8.58,1.68   c-11.11-10.97-22.31-21.86-33.29-32.97C746.83,991.49,743.03,986.63,738.82,981.5z"/>
	<path class="st4" d="M1429.36,771.33c2.68-1.51,5.36-3.02,8.59-4.53c-2.59,17.71-4.75,35.66-9.07,53.07   c-12.21,49.24-31.42,95.57-61.77,136.54c-13.63,18.4-28.81,35.66-43.42,53.32c-17.93,21.68-41.11,37.05-63.59,53.37   c-38.28,27.79-81.33,44.2-128.01,55.45c-3.93,1.28-6.61,2.44-9.28,3.61c-1.07,0.17-2.15,0.33-4.27,0.37   c-1.95,0.33-2.85,0.78-3.75,1.23c-1.55,0.23-3.1,0.45-5.75,0.5c-2.67,0.36-4.25,0.91-5.82,1.45c-1.65,0.27-3.3,0.54-5.92,0.46   c-2.32,0.1-3.66,0.54-5,0.98c-2.83,0.38-5.66,0.76-9.49,0.75c-3.5,0.11-5.99,0.6-8.49,1.1c-9.04,0.35-18.09,0.71-28.27,0.64   c-3.52-0.17-5.9,0.07-8.28,0.32c-7.47-0.19-14.94-0.37-23.39-1.15c-3.55-0.59-6.12-0.59-8.69-0.59c-2.7-0.17-5.4-0.34-8.96-1.09   c-2.39-0.62-3.93-0.65-5.46-0.69c-6.73-1.09-13.47-2.18-20.56-4.22c9.77-10.39,19.89-19.83,30.07-28.55   c0.56,8.26,1.39,15.8,1.48,23.35c0.06,5.15,2.96,5.35,7.4,5.12c14.63,0,28.53,0.01,43.09,0.02c2.91,0,5.15-0.01,8.13-0.02   c13.55-2.17,26.36-4.35,39.54-6.11c2.38,0.17,4.38-0.09,7.08-0.34c13.48-2.67,26.27-5.35,39.65-8c2.48-1.08,4.38-2.19,6.91-3.28   c14.09-4.81,27.55-9.63,41.57-14.45c2.82-1.07,5.09-2.14,7.94-3.26c21.67-8.14,39.49-21.8,58.28-33.84   c26.28-16.84,47.93-38.82,69.16-61.33c19.5-20.67,35.28-44.15,49.13-68.75c15.31-27.19,27.63-55.79,36.64-85.88   C1423.21,815.39,1427.84,793.72,1429.36,771.33z"/>
	<path class="st2" d="M1000.71,1092.97c-10.12,9.44-20.25,18.88-30.49,28.89c-13.55-2.92-27.06-6.16-40.39-9.97   c-7.86-2.25-15.46-5.42-23.43-9.2c1.71-2.26,3.68-3.49,5.75-5.34c0.14-2.29,0.17-3.97,0.7-5.89c6.35-5.99,12.19-11.74,18.06-17.46   c6.18-6.02,12.38-12.02,19.01-17.5c0.66,16,0.7,31.47,1.29,46.93c0.1,2.49,2.64,4.89,4.06,7.33c1.23-2.39,3.55-4.79,3.53-7.18   c-0.13-19.46-0.7-38.91-0.6-58.49c7.69-6.37,14.89-12.57,22-18.86c6.83-6.04,13.57-12.18,20.4-17.52   C1000.67,1037.29,1000.69,1065.13,1000.71,1092.97z"/>
	<path class="st4" d="M698.98,530.14c-2.07,3.01-4.65,5.79-6.13,9.06c-6.51,14.32-13.68,28.46-18.76,43.3   c-5.17,15.11-8.05,31-12.29,46.46c-0.51,1.85-3.21,3.09-5.41,4.45c0.04-3.49,0.58-6.81,1.75-10.8c0.76-1.72,0.89-2.78,1.02-3.84   c4.9-24.77,12.76-48.56,24.36-71.88c0.92-1.6,1.13-2.66,1.33-3.72c2.8-6.84,5.01-14,8.5-20.47c17.19-31.89,37.47-61.49,61.79-88.58   c18.2-20.27,39-37.03,60.14-53.78c31.67-25.09,68.16-40.12,105.31-54.76c34.15-13.45,69.61-18.24,105.45-20.84   c19.55-1.42,39.42,1.41,59.68,2.65c0.33,5.68-3.28,5.67-7.29,5.55c-18.36-0.54-36.73-0.95-56.54-1.42   c-13.59,1.2-26.08,1.02-37.79,3.95c-23.59,5.89-46.9,13.01-70.06,20.45c-31.58,10.16-60.94,24.79-87.49,45.05   c-21.16,16.14-42.44,31.82-60.46,51.84c-19.85,22.06-38.64,44.73-53.47,70.48C707.62,511.97,703.5,521.17,698.98,530.14z"/>
	<path class="st4" d="M912.04,1097.97c-1.97,1.23-3.93,2.47-5.92,4.21c-7.48-2.1-15.28-4.04-22.35-7.47   c-15.08-7.33-30.6-14.21-44.44-23.52c-18.91-12.71-36.42-27.51-54.73-41.9c2.46-1.03,5.12-1.59,8.63-1.66   c26.27,22.29,53.83,41,83.57,56.29c8.15,4.19,17.39,6.24,26.61,9.52C906.62,1095.12,909.33,1096.54,912.04,1097.97z"/>
	<path class="st4" d="M686.24,881.06c-1.39,1.07-2.78,2.13-4.77,3.3c-6.94-17.85-14.68-35.46-19.29-53.85   c-5.66-22.61-8.71-45.87-12.75-69.58c2.27-0.7,4.39-0.67,7.17,0.11c0.69,4.75,0.34,8.81,0.85,12.75   c3.22,25.34,9.77,49.91,17.52,74.18C678.51,859.06,682.47,870.03,686.24,881.06z"/>
	<path class="st4" d="M1397.4,544.55c1.69-0.44,3.39-0.89,5.56-1.6c14.07,26.87,23.4,55.38,28.23,85.38   c1.83,11.34,4.02,22.62,5.93,34.6c-2.21,0.72-4.31,0.77-7.06,0.1c-1.97-28.87-9.57-55.65-18.71-82.03   C1407.1,568.71,1402.08,556.69,1397.4,544.55z"/>
	<path class="st5" d="M723.04,1091.66c-9.88-4.33-14.67-12.75-17.55-22.47c-1.66-5.6-2.51-11.44-3.87-17.14   c-0.93-3.91-2.87-8.55,2.71-9.92c5.18-1.27,9.65,0.82,12.38,7.77c-4.17-1.94-7.08-3.29-10.57-4.91c1.28,17.4,5.89,32.6,16.88,46.03   C723.08,1091.6,723.04,1091.66,723.04,1091.66z"/>
	<path class="st6" d="M1123.2,1122.46c2.28-1.46,4.96-2.62,8.27-3.75C1129.27,1120.09,1126.43,1121.42,1123.2,1122.46z"/>
	<path class="st6" d="M1038.17,1130.32c1.97-0.59,4.35-0.83,7.12-0.71C1043.31,1130.21,1040.95,1130.44,1038.17,1130.32z"/>
	<path class="st6" d="M1074.9,1129.29c1.91-0.77,4.41-1.27,7.29-1.41C1080.22,1128.68,1077.85,1129.12,1074.9,1129.29z"/>
	<path class="st6" d="M1006.12,1128.66c2.12-0.42,4.69-0.43,7.54-0.02C1011.49,1129.07,1009.03,1129.07,1006.12,1128.66z"/>
	<path class="st6" d="M991.62,1126.9c1.17-0.4,2.7-0.37,4.46,0.03C994.87,1127.31,993.42,1127.33,991.62,1126.9z"/>
	<path class="st6" d="M1092.63,1127.48c1-0.76,2.34-1.2,4.02-1.32C1095.66,1126.92,1094.32,1127.36,1092.63,1127.48z"/>
	<path class="st6" d="M1103.69,1126c1.09-0.82,2.67-1.36,4.75-1.68C1107.36,1125.12,1105.77,1125.69,1103.69,1126z"/>
	<path class="st6" d="M1115.05,1124.06c0.63-0.74,1.53-1.2,2.94-1.47C1117.44,1123.29,1116.38,1123.82,1115.05,1124.06z"/>
	<path class="st2" d="M649.01,672.12c0.43,0.72,0.48,1.76,0.17,2.96C648.76,674.31,648.7,673.37,649.01,672.12z"/>
	<path class="st2" d="M658.7,619c0.33,0.83,0.19,1.89-0.37,3.01C658.02,621.12,658.13,620.17,658.7,619z"/>
	<path class="st2" d="M684.43,543.42c0.22,0.81,0.01,1.87-0.64,2.96C683.55,545.5,683.78,544.59,684.43,543.42z"/>
	<path class="st5" d="M723.11,1091.57c0.7,0.2,1.38,0.42,2.05,0.65c-0.57,0.02-1.13,0.05-1.91-0.25   C723.04,1091.66,723.08,1091.6,723.11,1091.57z"/>
	<path class="st1" d="M699.46,529.92c4.04-8.75,8.16-17.95,13.17-26.64c14.83-25.75,33.62-48.42,53.47-70.48   c18.01-20.02,39.3-35.71,60.46-51.84c26.56-20.25,55.91-34.89,87.49-45.05c23.16-7.45,46.47-14.57,70.06-20.45   c11.72-2.92,24.21-2.74,37.05-3.93c-11.9,7.89-24.35,16.02-37.15,23.54c-21.84,12.83-44.22,24.75-65.78,38.03   c-24.92,15.34-49.47,31.3-73.66,47.77c-27.05,18.41-53.94,37.13-80.11,56.77C742.37,494.2,721.41,512.28,699.46,529.92z"/>
	<path class="st1" d="M1428.79,771.43c-0.95,22.28-5.59,43.96-12.04,65.5c-9.01,30.1-21.33,58.69-36.64,85.88   c-13.85,24.6-29.63,48.08-49.13,68.75c-21.23,22.5-42.88,44.48-69.16,61.33c-18.79,12.04-36.61,25.7-58.27,33.09   c-1.06-11.07-1.83-21.43-1.97-31.8c-0.62-44.83-1.07-89.67-1.57-134.5c4.99-2.89,10.25-5.4,14.92-8.74   c11.45-8.21,22.25-17.38,33.98-25.15c41.12-27.23,82.38-54.24,123.87-80.9C1390.91,793.22,1409.72,782.62,1428.79,771.43z"/>
	<path class="st1" d="M1397.11,544.07c4.97,12.62,9.99,24.64,14.25,36.93c9.15,26.38,16.74,53.16,18.08,82.04   c-14.44,6.13-28.98,11.31-43.32,16.99c-22.99,9.09-45.85,18.52-68.77,27.79c-16.57,6.7-33.14,13.38-50.34,20.26   c-2.54-23.79-4.54-47.75-6.33-71.74c-0.77-10.39-0.74-20.85-1.84-31.2c-0.39-3.7-2.41-7.67-4.79-10.62   c-5.86-7.27-12.22-14.15-18.66-20.92c-4.6-4.84-3.58-7.33,1.83-11.12c5.18-3.63,8.8-9.48,14.03-14.86   c1.67-0.77,2.48-0.92,3.18-1.29c34.59-18.33,69.12-36.76,103.78-54.96c5.61-2.95,11.74-4.92,17.62-7.34   c5.79,10.56,11.62,21.11,17.36,31.71C1394.56,538.27,1395.62,540.97,1397.11,544.07z"/>
	<path class="st7" d="M1199.95,918.9c0.56,45.61,1,90.44,1.63,135.28c0.14,10.37,0.91,20.73,1.39,31.85   c-2.27,1.82-4.54,2.89-7.37,3.21c-1.15-54.45-1.73-108.15-2.27-162.59c-0.02-25.98-0.09-51.23-0.09-77.21   c0-7.21-0.06-13.69-0.06-20.91c0.31-12.21,0.56-23.67,0.82-35.13c0.75,0.21,1.5,0.42,2.51,1.78c0.77,10.65,1.29,20.14,1.79,30.36   c0.06,6.65,0.14,12.56,0.22,18.48C1198.98,868.72,1199.44,893.42,1199.95,918.9z"/>
	<path class="st1" d="M1199.05,843.91c-0.61-5.81-0.69-11.73-0.15-18.44c6.84-3.12,13.22-5.1,19.21-7.9   c3.9-1.82,7.24-4.82,10.83-7.29c3.56,1.53,7.13,3.05,11.06,4.95C1226.78,824.99,1213.18,834.4,1199.05,843.91z"/>
	<path class="st8" d="M1048.96,496.4c20.11,7.05,40.77,12.83,60.21,21.41c37.55,16.57,71.43,39.5,102.86,65.8   c12.01,10.05,22.5,21.98,33.26,33.45c2.33,2.48,3.81,6.55,4.14,10.03c5.47,57.56,10.69,115.15,15.94,172.74   c0.16,1.78,0.02,3.6,0.02,5.07c-121.53-85.41-248.03-161.76-381.25-227.76c6.88,0.72,13.77,2.4,22.57,4.53   c5.86-2.95,13.99-7.03,22.11-11.12c0.3,0.49,0.59,0.97,0.89,1.46c-2.99,2.58-5.97,5.16-8.96,7.74c0.43,0.97,0.85,1.94,1.28,2.91   c8.23-2.94,17.23-4.61,24.53-9.07c21.03-12.83,40.84-27.72,62.18-39.97c14.7-8.44,32.15-12.23,40.78-25.74   C1049.27,502.8,1049.11,499.6,1048.96,496.4z M961.3,566.9c-6.22,4.46-12.52,8.82-18.59,13.48c-1.1,0.85-1.29,2.9-1.9,4.39   c1.16,0.29,2.78,1.23,3.41,0.78c8.81-6.3,17.49-12.78,26.2-19.22c-0.47-0.81-0.94-1.63-1.42-2.44   C966.77,564.68,964.53,565.46,961.3,566.9z"/>
	<path class="st9" d="M1309.05,457.92c-31.14,12.34-58.62,29.22-80.67,52.36c-21.15-14.72-42-29.23-65.44-45.54   c1.56-0.8,4.38-1.85,6.74-3.53c8.27-5.89,16.37-12.03,24.56-18.04c24.47-17.94,51.41-31.28,79.25-43.01   c5.88-2.48,10.38-2.35,15.15,2.25c15.31,14.76,30.87,29.26,47.22,44.69C1325.87,451.12,1317.74,454.39,1309.05,457.92z"/>
	<path class="st10" d="M1002.75,648.83c24.47,13.81,48.65,26.95,72.39,40.84c31.04,18.16,62.16,36.25,92.45,55.63   c24.23,15.5,47.32,32.8,70.79,49.48c7.24,5.14,14.08,10.86,21.1,16.31c-0.4,0.92-0.8,1.83-1.2,2.75c-3.74-1.1-7.72-1.69-11.17-3.39   c-22.69-11.17-45.6-21.97-67.81-34.05c-34.88-18.98-69.51-38.47-103.81-58.48c-40.98-23.91-81.84-48.08-122.13-73.14   c-26.44-16.45-51.9-34.49-77.5-52.26c-4.81-3.34-8.2-8.73-12.01-13.9c24.76,7.25,46.91,20.8,69.91,32.13   C957.12,622.26,979.48,635.83,1002.75,648.83z"/>
	<path class="st2" d="M1375.71,503.46c-5.77,2.99-11.89,4.96-17.5,7.9c-34.65,18.2-69.19,36.63-103.78,54.96   c-0.7,0.37-1.51,0.52-2.86,0.84c1.69-16.79-4.77-30.98-14.75-43.69c-4.04-5.14-4.23-8.6,0.76-12.61   c4.58-3.69,8.79-7.87,13.56-11.28c25.79-18.44,53.74-32.64,83.8-42.73c4.39-1.47,7.7-1.28,10.47,2.71   C1355.44,474.03,1365.52,488.45,1375.71,503.46z"/>
	<path class="st10" d="M1220.3,578.73c-18.55-13.42-36.41-27.95-55.82-39.97c-22.04-13.65-45.47-25.05-68.82-38.35   c-2.57-18.26,1.72-26.27,15.14-27.76c7.32-0.81,15.03-0.47,22.29,0.85c24.19,4.42,44.58,17.35,64.19,31.22   c16.09,11.38,29.36,25.59,36.35,44.72c3.96,10.83,1.54,17.85-8.22,23.81C1223.36,574.51,1221.99,576.88,1220.3,578.73z"/>
	<path class="st9" d="M1048.41,496.1c0.7,3.51,0.86,6.71,1.11,11.8c-8.63,13.51-26.08,17.3-40.78,25.74   c-21.34,12.25-41.15,27.14-62.18,39.97c-7.31,4.46-16.31,6.13-24.53,9.07c-0.43-0.97-0.85-1.94-1.28-2.91   c2.99-2.58,5.97-5.16,8.96-7.74c-0.3-0.49-0.59-0.97-0.89-1.46c-8.13,4.08-16.25,8.17-22.11,11.12c-8.8-2.14-15.69-3.81-22.92-4.97   c-2.71-0.36-5.08-1.24-7.83-3.18c-0.41-3.4-0.44-5.75-0.47-8.1c8.83-4.91,17.66-9.8,26.48-14.73   c33.88-18.94,67.88-37.67,101.53-57.01c6.99-4.01,13.36-5.57,21.04-3.42C1032.23,492.42,1040.08,493.97,1048.41,496.1z    M1043.81,505.1c-0.01,0.64-0.02,1.29-0.02,1.93c0.27,0,0.77,0.02,0.77,0C1044.6,506.4,1044.61,505.75,1043.81,505.1z"/>
	<path class="st1" d="M1026.89,700.51c7.76,4.45,15.53,8.89,23.54,14.56c0.17,38.87,0.09,76.52-0.58,114.22   c-2.83,0.87-5.12,1.55-7.27,2.54c-12.31,5.64-24.59,11.35-36.92,16.28c-0.58-44.83-1.12-88.89-1.17-133.19   C1012.28,709.95,1019.59,705.23,1026.89,700.51z"/>
	<path class="st7" d="M912.15,1097.35c-2.82-0.81-5.53-2.23-8.74-4.65c-1.06-40.23-1.63-79.46-2.19-118.69   c-0.01-23.04-0.03-46.09-0.09-69.89c-0.54-38.36-1.03-75.96-1.58-114.33c-0.23-25.61-0.39-50.44-0.98-76.53   c-0.48-15.78-0.53-30.3-0.57-44.82c0.03-16.72,0.07-33.44,0.21-50.94c2.02,0.43,3.94,1.65,6.14,4.06   c0.8,14.88,1.33,28.55,1.82,42.97c0.06,14.24,0.15,27.72,0.16,41.94c0.44,25.41,0.95,50.08,1.43,75.51   c0.52,38.93,1.08,77.12,1.6,116.02c0.04,23.78,0.12,46.83,0.14,70.63c0.4,10.86,1.17,20.98,1.25,31.1   c0.21,27.85,0.1,55.7,0.24,83.55c0.01,2.82,0.9,5.63,1.38,8.44C912.32,1093.38,912.29,1095.05,912.15,1097.35z"/>
	<path class="st1" d="M1055.46,717.53c13.26,7.28,26.52,14.57,39.99,23.06c0.14,22.89,0.07,44.56-0.58,66.32   c-12.95,5.49-25.32,10.9-37.75,15.54C1056.52,786.97,1055.99,752.25,1055.46,717.53z"/>
	<path class="st7" d="M957.67,1045.21c0.43,19.45,1,38.91,1.13,58.36c0.02,2.38-2.3,4.78-3.53,7.18c-1.41-2.44-3.96-4.84-4.06-7.33   c-0.59-15.46-0.63-30.93-1.28-47.65c-0.51-36.14-0.58-71.04-0.62-106.66c0.05-10.58,0.26-20.44,0.02-30.29   c-0.31-12.73-0.97-25.45-1.46-38.92c-0.09-42.03-0.19-83.33-0.23-125.36c-0.43-25.47-0.92-50.2-1.4-75.68   c0.15-10.01,0.28-19.28,0.42-28.55c1.81,0.9,3.62,1.8,5.72,3.87c0.37,7.23,0.45,13.28,0.48,20.07c0.45,24.43,0.95,48.11,1.43,72.53   c0.55,43.12,1.12,85.52,1.64,128.65c0.46,23.28,0.97,45.82,1.46,69.11C957.47,978.59,957.57,1011.9,957.67,1045.21z"/>
	<path class="st7" d="M1055.2,717.16c0.79,35.09,1.32,69.8,1.86,106.01c0.49,24.05,0.98,46.6,1.46,69.89   c0.02,21.09,0.05,41.45,0.05,62.56c0.05,27.62,0.12,54.48,0.15,82.09c0.44,28.65,0.93,56.55,1.41,84.45   c-2.24,0.01-4.48,0.02-7.37-0.73c-1.15-25.47-1.64-50.19-2.14-75.3c0.01-0.39-0.01-1.19,0-1.94c-0.03-26.62-0.08-52.49-0.1-79.08   c-0.02-22.74-0.06-44.76-0.07-67.51c0.02-23.28,0.01-45.83-0.01-68.37c0.07-37.65,0.15-75.3,0.33-113.75   C1052.23,715.39,1053.59,716.09,1055.2,717.16z"/>
	<path class="st7" d="M1095.44,806.83c0.07-21.67,0.15-43.34,0.37-65.83c1.85-0.15,3.56,0.52,5.7,2.26   c0.44,17.3,0.39,33.53,0.53,49.76c0.02,2.52,0.94,5.03,1.44,8.29c0.06,23.32,0.12,45.9,0.15,69.22   c0.49,15.78,1.01,30.83,1.52,46.62c0.07,26.5,0.17,52.26,0.21,78.76c0.44,40.42,0.94,80.11,1.44,119.8   c-2.01,0.26-4.01,0.52-6.34-0.23c-0.37-2.16-0.42-3.31-0.38-5.09c-0.38-2.93-0.86-5.23-1.34-8.28   c-0.05-30.21-0.06-59.67-0.22-89.13c-0.02-2.8-0.97-5.59-1.45-9.12c-0.03-26.53-0.11-52.31-0.13-78.83   c-0.45-16.87-0.95-33.01-1.42-49.89C1095.51,851.87,1095.47,829.35,1095.44,806.83z"/>
	<path class="st7" d="M1004,715.14c0.54,44.06,1.08,88.13,1.62,133.69c0.09,24.58,0.18,47.66,0.19,71.44   c0.49,26.57,1.05,52.43,1.57,79.03c0.01,28.01,0.05,55.29,0.03,83.13c0,1.33,0.06,2.09,0.07,3.52c-0.02,3.36,0.02,6.05-0.01,9.23   c0.38,1.27,0.84,2.07,1.3,3.61c0.04,8.29,0.08,15.83,0.12,23.37c-3.69,0.23-6.59,0.02-6.65-5.13c-0.09-7.55-0.92-15.08-1.48-23.35   c-0.07-28.56-0.09-56.4-0.1-85.75c-0.52-28.45-1.04-55.39-1.53-83.05c-0.04-24.26-0.11-47.8-0.14-72.09   c-0.46-44.81-0.97-88.87-1.45-133.68c0.01-12.99-0.02-25.23-0.04-37.48c1.49,0.68,2.97,1.36,4.71,3.24   C1002.98,695.78,1003.49,705.46,1004,715.14z"/>
	<path class="st2" d="M997.02,681.38c0.51,12.52,0.53,24.76-0.02,37.87c-11.56,8.11-22.49,15.44-33.57,22.54   c-2.8,1.8-6.08,2.87-9.13,4.27c-0.5-23.69-1-47.37-0.91-71.91c5.79-3.77,10.99-6.69,16.2-9.61   C978.56,670.06,987.55,675.58,997.02,681.38z"/>
	<path class="st2" d="M1193.77,792.9c-0.02,11.97-0.27,23.43-1.14,35.75c-4.29,2.36-7.96,3.88-11.64,5.38   c-10.75,4.4-21.49,8.8-32.3,12.44c-0.11-22.97-0.27-45.19-0.06-67.4c0.03-2.66,2.11-5.3,3.24-7.95   C1165.76,778.21,1179.65,785.3,1193.77,792.9z"/>
	<path class="st7" d="M1151.55,770.68c-0.81,3.08-2.89,5.72-2.92,8.38c-0.22,22.21-0.05,44.43,0,68.06   c0.53,11.77,1.04,22.11,1.53,33.19c0.48,25.96,0.99,51.19,1.48,77.15c0.11,38.74,0.23,76.73,0.26,115.28   c0.39,1.83,0.87,3.11,1.34,5.14c0.05,9.35,0.1,17.94,0.15,26.54c-1.89,1.1-3.79,2.21-6.2,2.6c-1-11.92-1.69-23.11-1.91-34.32   c-0.71-35.06-1.24-70.11-1.79-105.9c-0.46-26.51-0.96-52.29-1.46-78.8c-0.05-12.06-0.12-23.38-0.15-35.45   c-0.44-23.26-0.92-45.77-1.39-69.03c0.17-6.32,0.33-11.91,0.49-17.49C1144.41,767.43,1147.82,768.84,1151.55,770.68z"/>
	<path class="st9" d="M1220.67,579.23c1.32-2.35,2.69-4.72,4.75-5.98c9.76-5.97,12.18-12.99,8.22-23.81   c-6.99-19.13-20.26-33.34-36.35-44.72c-19.6-13.87-39.99-26.8-64.19-31.22c-7.26-1.33-14.97-1.67-22.29-0.85   c-13.42,1.49-17.71,9.5-15.68,27.46c-2.55-0.86-7.16-2.23-7.25-3.84c-0.41-7.68-2.86-16.89,5.22-21.83   c6.36-3.89,14.01-7.53,21.23-7.83c22.29-0.9,43.21,4.8,62.01,17.38c11.1,7.42,22.82,14.01,33.41,22.09   c14.42,11.01,25.89,24.67,31.77,42.35C1247.2,565.5,1238.76,578.48,1220.67,579.23z"/>
	<path class="st1" d="M946.32,649.98c0.2,9.6,0.06,18.87-0.65,29.01c-5.01,3.73-9.5,6.52-13.88,9.47   c-8.5,5.71-16.94,11.51-25.41,17.28c-0.09-13.49-0.18-26.97,0.33-41.29c12.46-6.18,24.33-11.52,36.2-16.86   C943.94,648.27,944.96,648.96,946.32,649.98z"/>
	<path class="st1" d="M1140.6,765.66c0.25,5.95,0.09,11.54-0.66,17.96c-12.55,6.21-24.5,11.58-36.45,16.95   c-0.51-2.52-1.43-5.03-1.45-7.55c-0.14-16.23-0.09-32.46-0.09-49.42C1114.69,750.35,1127.44,757.82,1140.6,765.66z"/>
	<path class="st2" d="M942.6,647.15c-11.55,5.77-23.42,11.11-35.85,16.54c-1.09-13.58-1.61-27.26-2.15-41.71   C917.15,629.71,929.71,638.22,942.6,647.15z"/>
	<path class="st2" d="M1228.47,809.94c-3.11,2.81-6.45,5.82-10.35,7.64c-6,2.8-12.37,4.78-19.19,7.17   c-1.12-9.43-1.64-18.92-2.19-29.23C1207.13,799.65,1217.56,804.62,1228.47,809.94z"/>
	<path class="st2" d="M1004.49,714.91c-1-9.45-1.51-19.13-2.04-29.57c7.91,4.26,15.85,9.27,24.11,14.73   C1019.59,705.23,1012.28,709.95,1004.49,714.91z"/>
	<path class="st11" d="M969.26,664.1c-4.88,3.35-10.08,6.27-15.83,9.3c-0.62-5.94-0.69-12-0.77-18.82   C958.09,657.11,963.51,660.39,969.26,664.1z"/>
	<path class="st8" d="M874.91,565.47c0.61,2.31,0.64,4.66,0.63,7.71c-2.68-0.05-5.32-0.81-10.1-2.18   C869.5,568.5,871.91,567,874.91,565.47z"/>
	<path class="st1" d="M897.41,668.53c0.62,14.42,0.67,28.95,0.71,44.21c-17.26,13.15-34.61,25.41-51.72,38   c-18.22,13.41-36.51,26.74-54.22,40.81c-19.14,15.19-37.77,31.03-56.38,46.88c-16.34,13.92-32.34,28.25-49.03,42.52   c-4.31-10.91-8.27-21.88-11.82-32.98c-7.76-24.26-14.3-48.84-17.52-74.18c-0.5-3.95-0.16-8-0.21-12.73   c20.62-6.66,41.64-11.47,61.77-18.77c38.84-14.09,77.38-29.08,115.64-44.68C855.8,688.98,876.13,678.35,897.41,668.53z"/>
	<path class="st1" d="M900.64,974.12c1.13,39.12,1.7,78.35,2.28,118.34c-8.72-2.28-17.96-4.34-26.1-8.53   c-29.75-15.29-57.3-34-82.97-56.31c28.23-14.88,56.7-29.31,85.22-43.61C885.97,980.54,893.06,977.48,900.64,974.12z"/>
	<path class="st1" d="M1154.04,1104.44c-0.69-8.61-0.74-17.21-0.38-26.86c-0.28-2.5-0.97-3.94-1.66-5.38   c-0.12-38-0.24-75.99,0.21-114.86c3.43-2.77,6.37-4.56,9.14-6.57c10.68-7.75,21.3-15.58,31.94-23.37   c0.58,53.7,1.16,107.4,1.75,161.85C1181.59,1094.81,1168.14,1099.63,1154.04,1104.44z"/>
	<path class="st1" d="M1143.45,967.53c0.6,35.06,1.13,70.12,1.84,105.17c0.23,11.21,0.92,22.4,1.32,34.3   c-12.86,3.37-25.65,6.05-39.13,8.72c-1.19-39.69-1.69-79.38-1.61-119.9c4.77-4.09,8.89-7.43,13.16-10.58   C1127.13,979.27,1135.31,973.43,1143.45,967.53z"/>
	<path class="st1" d="M1097.03,1004.6c0.52,2.79,1.48,5.59,1.5,8.38c0.16,29.46,0.17,58.92-0.22,89.5c0.27,3.59,0.97,6.06,1.68,8.53   c0.05,1.16,0.1,2.31,0.1,4.04c-12.87,2.75-25.68,4.93-39.23,7.11c-1.22-27.9-1.7-55.8-1.63-84.57c9.85-9.2,19.09-17.6,28.46-25.85   C1090.62,1009.17,1093.9,1006.97,1097.03,1004.6z"/>
	<path class="st1" d="M1009.64,1122.16c-0.78-7.54-0.83-15.08-0.5-23.62c-0.29-1.95-0.94-2.89-1.59-3.83   c-0.04-2.69-0.08-5.38,0.39-8.85c1.17-1.74,1.82-2.71,2.94-3.96c13.03-11.96,25.6-23.64,38.56-35.33c0.39-0.01,1.17-0.04,1.17-0.04   c0.5,24.71,0.99,49.43,1.47,74.9C1038.17,1122.17,1024.28,1122.17,1009.64,1122.16z"/>
	<path class="st1" d="M949.27,949.84c0.08,34.89,0.16,69.78,0.23,105.4c-6.2,6.74-12.41,12.73-18.59,18.76   c-5.87,5.72-11.71,11.47-18.06,17.46c-0.97-2.56-1.86-5.37-1.88-8.19c-0.14-27.85-0.02-55.7-0.24-83.55   c-0.08-10.12-0.85-20.24-0.66-31.14c5.28-2.71,10-4.46,14.53-6.61C932.89,958.05,941.05,953.89,949.27,949.84z"/>
	<path class="st1" d="M999.09,925.61c0.53,26.94,1.05,53.89,1.52,81.58c-6.84,6.84-13.58,12.98-20.41,19.02   c-7.11,6.3-14.31,12.5-22,18.86c-0.63-33.19-0.73-66.49-0.24-100.66c4.44-2.67,8.25-4.58,12.15-6.29   C979.75,933.91,989.43,929.78,999.09,925.61z"/>
	<path class="st2" d="M1193.34,926.65c-10.68,8.54-21.31,16.36-31.98,24.11c-2.77,2.02-5.71,3.81-9.13,5.84   c-1.07-25.1-1.57-50.32-1.48-76.37c8.24-6,15.92-11.1,23.49-16.38c6.39-4.46,12.64-9.11,18.95-13.68   C1193.25,875.42,1193.31,900.66,1193.34,926.65z"/>
	<path class="st1" d="M1193.25,849.44c-6.37,5.3-12.62,9.95-19.01,14.41c-7.57,5.27-15.25,10.38-23.46,15.64   c-1.09-10.26-1.61-20.6-2.08-31.61c10.8-5.06,21.55-9.46,32.29-13.86c3.67-1.5,7.34-3.02,11.57-4.64   C1193.19,835.76,1193.25,842.23,1193.25,849.44z"/>
	<path class="st9" d="M961.8,566.58c2.73-1.11,4.97-1.9,7.21-2.69c0.47,0.81,0.94,1.63,1.42,2.44c-8.71,6.44-17.39,12.93-26.2,19.22   c-0.63,0.45-2.25-0.49-3.41-0.78c0.61-1.49,0.79-3.54,1.9-4.39C948.78,575.72,955.08,571.36,961.8,566.58z"/>
	<path class="st8" d="M1044.21,505.11c0.39,0.65,0.39,1.29,0.34,1.93c0,0.02-0.5,0-0.77,0   C1043.79,506.39,1043.8,505.75,1044.21,505.11z"/>
	<path class="st2" d="M1005.89,919.58c-0.09-23.08-0.17-46.16-0.22-69.98c12.33-6.43,24.61-12.14,36.92-17.78   c2.15-0.98,4.44-1.66,7.27-2.54c0.61,22.49,0.63,45.03,0,68.37c-3.82,2.03-7.12,3.02-10.15,4.55   C1028.38,907.9,1017.15,913.77,1005.89,919.58z"/>
	<path class="st1" d="M947.57,755.28c0.1,41.3,0.2,82.59-0.3,124.71c-2.27,1.52-3.95,2.2-5.6,2.93   c-10.77,4.78-21.53,9.57-32.29,14.36c-0.55-38.18-1.1-76.37-1.08-115.39C921.77,772.45,934.67,763.86,947.57,755.28z"/>
	<path class="st2" d="M947.63,754.54c-12.96,9.33-25.87,17.91-39.31,26.59c-1.06-24.58-1.57-49.26-2.01-74.66   c8.54-6.5,16.98-12.29,25.48-18.01c4.38-2.95,8.87-5.74,13.86-8.73C946.71,704.33,947.2,729.07,947.63,754.54z"/>
	<path class="st2" d="M909.34,897.99c10.8-5.51,21.56-10.3,32.33-15.08c1.65-0.73,3.33-1.4,5.59-2.19   c1.11,12.64,1.77,25.36,2.07,38.09c0.24,9.85,0.03,19.71-0.02,30.29c-8.26,4.79-16.42,8.94-24.7,12.86   c-4.53,2.15-9.25,3.9-14.48,5.87C909.46,944.83,909.38,921.77,909.34,897.99z"/>
	<path class="st2" d="M1094.86,806.91c0.61,22.44,0.65,44.96,0.08,68.33c-12.54,6.26-24.48,11.67-36.41,17.09   c-0.49-22.55-0.97-45.11-1.41-68.39C1069.55,817.81,1081.92,812.4,1094.86,806.91z"/>
	<path class="st1" d="M954.28,746.78c3.08-2.13,6.35-3.19,9.15-4.99c11.08-7.1,22.01-14.43,33.54-21.8   c1.06,43.95,1.57,88,1.51,132.92c-14.55,7.83-28.54,14.81-42.52,21.79C955.39,832.3,954.82,789.9,954.28,746.78z"/>
	<path class="st2" d="M955.92,875.43c14.02-7.71,28-14.68,42.5-21.76c0.6,23.44,0.67,46.98,0.71,71.23   c-9.7,4.89-19.38,9.02-29.02,13.24c-3.9,1.71-7.71,3.62-12.14,5.55C956.89,921.25,956.38,898.7,955.92,875.43z"/>
	<path class="st2" d="M1049.05,1046.58c-12.57,11.68-25.14,23.36-38.66,35.26c-1.61,0.16-2.26,0.1-2.91,0.04   c-0.05-27.28-0.09-54.55,0.44-82.69c8.48-7.34,16.26-13.97,24.32-20.25c5.9-4.6,12.16-8.75,18.26-13.1   c0.04,25.87,0.09,51.74-0.23,78.53C1049.46,1045.61,1049.17,1046.04,1049.05,1046.58z"/>
	<path class="st1" d="M1050.52,965.11c-6.12,5.07-12.38,9.22-18.28,13.82c-8.05,6.28-15.84,12.91-24.28,19.52   c-1.1-25.74-1.66-51.61-2.15-78.17c11.33-6.51,22.56-12.38,33.88-18.08c3.03-1.52,6.33-2.51,10.11-3.81   C1050.46,920.35,1050.5,942.37,1050.52,965.11z"/>
	<path class="st2" d="M1097.07,1003.86c-3.17,3.11-6.45,5.3-9.39,7.89c-9.37,8.25-18.61,16.64-28.41,25.1   c-0.59-26.75-0.66-53.61-0.23-81.46c8.4-7.6,16.16-14.38,24.25-20.75c4.24-3.34,9.04-5.94,13.59-8.88   C1096.96,951.55,1097.04,977.34,1097.07,1003.86z"/>
	<path class="st1" d="M1096.94,925.03c-4.6,3.67-9.41,6.27-13.65,9.61c-8.09,6.37-15.85,13.15-24.23,20   c-0.51-20.12-0.53-40.48-0.55-61.57c11.94-6.15,23.88-11.56,36.39-17.08C1095.99,892.02,1096.5,908.16,1096.94,925.03z"/>
	<path class="st4" d="M1049.44,1046.57c-0.27-0.52,0.01-0.95,0.81-1.45c0.35-0.17,0.37,0.62,0.36,1.01   C1050.61,1046.53,1049.83,1046.55,1049.44,1046.57z"/>
	<path class="st2" d="M1143.51,966.8c-8.2,6.63-16.37,12.48-24.47,18.44c-4.27,3.15-8.39,6.49-13.11,9.84   c-0.62-25.67-0.72-51.42-0.24-78.04c2.07-1.92,3.61-2.94,5.06-4.06c10.43-8.07,20.85-16.17,31.28-24.25   C1142.54,914.51,1143.05,940.29,1143.51,966.8z"/>
	<path class="st2" d="M1103.47,801.31c11.96-6.11,23.91-11.48,36.45-16.95c1.06,22.42,1.54,44.94,1.39,68.26   c-2.48,1.59-4.33,2.35-6.17,3.17c-10.5,4.66-20.99,9.34-31.48,14.01C1103.6,847.21,1103.53,824.63,1103.47,801.31z"/>
	<path class="st1" d="M1103.62,870.53c10.53-5.41,21.02-10.08,31.52-14.75c1.83-0.81,3.69-1.58,6.13-2.43   c0.66,11.26,0.72,22.59,0.78,34.64c-10.44,8.82-20.86,16.91-31.29,24.99c-1.45,1.12-2.99,2.14-5.04,3.32   C1104.64,901.36,1104.11,886.31,1103.62,870.53z"/>
	<path class="st4" d="M1100.08,1110.39c-0.8-1.84-1.51-4.31-1.78-7.15C1099.22,1105.16,1099.7,1107.46,1100.08,1110.39z"/>
	<path class="st4" d="M1007.41,1082.44c0.72-0.51,1.37-0.45,2.52-0.33c-0.17,1.03-0.82,1.99-1.93,3.07   C1007.48,1084.53,1007.41,1083.77,1007.41,1082.44z"/>
	<path class="st4" d="M1007.48,1095.19c0.72,0.46,1.38,1.4,1.66,2.6C1008.32,1097.26,1007.86,1096.46,1007.48,1095.19z"/>
	<path class="st4" d="M1151.91,1072.74c0.78,0.9,1.47,2.34,1.75,4.09C1152.78,1075.85,1152.3,1074.57,1151.91,1072.74z"/>
</g>
</svg>